<?xml version="1.0" encoding="UTF-8"?>
<!DOCTYPE svg PUBLIC "-//W3C//DTD SVG 1.1//EN" "http://www.w3.org/Graphics/SVG/1.1/DTD/svg11.dtd">
<!-- Creator: CorelDRAW 2020 (64-Bit) -->
<svg xmlns="http://www.w3.org/2000/svg" xml:space="preserve" width="31mm" height="45mm" version="1.1" style="shape-rendering:geometricPrecision; text-rendering:geometricPrecision; image-rendering:optimizeQuality; fill-rule:evenodd; clip-rule:evenodd"
viewBox="0 0 3100 4500"
 xmlns:xlink="http://www.w3.org/1999/xlink"
 xmlns:xodm="http://www.corel.com/coreldraw/odm/2003">
 <defs>
  <style type="text/css">
   <![CDATA[
    .fil18 {fill:#AD8241}
    .fil5 {fill:#FEFEFE;fill-rule:nonzero}
    .fil20 {fill:#E4D182;fill-rule:nonzero}
    .fil16 {fill:url(#id0)}
    .fil0 {fill:url(#id1)}
    .fil9 {fill:url(#id2)}
    .fil4 {fill:url(#id3)}
    .fil2 {fill:url(#id4)}
    .fil1 {fill:url(#id5)}
    .fil14 {fill:url(#id6)}
    .fil17 {fill:url(#id7)}
    .fil15 {fill:url(#id8)}
    .fil3 {fill:url(#id9)}
    .fil21 {fill:url(#id10)}
    .fil19 {fill:url(#id11)}
    .fil13 {fill:url(#id12)}
    .fil10 {fill:url(#id13)}
    .fil6 {fill:url(#id14)}
    .fil7 {fill:url(#id15)}
    .fil12 {fill:url(#id16)}
    .fil8 {fill:url(#id17)}
    .fil11 {fill:url(#id18)}
   ]]>
  </style>
  <linearGradient id="id0" gradientUnits="userSpaceOnUse" x1="1681.16" y1="3858.51" x2="2609.38" y2="3858.51">
   <stop offset="0" style="stop-opacity:1; stop-color:#A7793C"/>
   <stop offset="0.0784314" style="stop-opacity:1; stop-color:#A7793C"/>
   <stop offset="0.54902" style="stop-opacity:1; stop-color:#EFE292"/>
   <stop offset="1" style="stop-opacity:1; stop-color:#A47A2F"/>
  </linearGradient>
  <linearGradient id="id1" gradientUnits="userSpaceOnUse" xlink:href="#id0" x1="138.92" y1="800.45" x2="2932.99" y2="800.45">
  </linearGradient>
  <linearGradient id="id2" gradientUnits="userSpaceOnUse" x1="1529.87" y1="1264.14" x2="1527" y2="1725.84">
   <stop offset="0" style="stop-opacity:1; stop-color:#1AB5C1"/>
   <stop offset="0.988235" style="stop-opacity:1; stop-color:#2D3152"/>
   <stop offset="1" style="stop-opacity:1; stop-color:#2D3152"/>
  </linearGradient>
  <linearGradient id="id3" gradientUnits="userSpaceOnUse" xlink:href="#id0" x1="1389.44" y1="790.29" x2="1506.08" y2="790.29">
  </linearGradient>
  <linearGradient id="id4" gradientUnits="userSpaceOnUse" xlink:href="#id0" x1="1388.78" y1="926.55" x2="1506.69" y2="926.55">
  </linearGradient>
  <linearGradient id="id5" gradientUnits="userSpaceOnUse" xlink:href="#id0" x1="1531.42" y1="926.4" x2="1651.19" y2="926.4">
  </linearGradient>
  <linearGradient id="id6" gradientUnits="userSpaceOnUse" x1="1931.97" y1="1671.91" x2="2025.65" y2="1671.91">
   <stop offset="0" style="stop-opacity:1; stop-color:#EA5B21"/>
   <stop offset="1" style="stop-opacity:1; stop-color:#FCCD00"/>
  </linearGradient>
  <linearGradient id="id7" gradientUnits="userSpaceOnUse" xlink:href="#id0" x1="716.4" y1="3841.85" x2="1718.02" y2="3841.85">
  </linearGradient>
  <linearGradient id="id8" gradientUnits="userSpaceOnUse" x1="1035.82" y1="1674.31" x2="1129.52" y2="1674.31">
   <stop offset="0" style="stop-opacity:1; stop-color:#ABC922"/>
   <stop offset="1" style="stop-opacity:1; stop-color:#20863E"/>
  </linearGradient>
  <linearGradient id="id9" gradientUnits="userSpaceOnUse" xlink:href="#id0" x1="1533.3" y1="790.34" x2="1650.65" y2="790.34">
  </linearGradient>
  <linearGradient id="id10" gradientUnits="userSpaceOnUse" xlink:href="#id0" x1="1574.86" y1="2692.11" x2="2506.92" y2="2692.11">
  </linearGradient>
  <linearGradient id="id11" gradientUnits="userSpaceOnUse" xlink:href="#id0" x1="561.42" y1="2687.01" x2="1485.67" y2="2687.01">
  </linearGradient>
  <linearGradient id="id12" gradientUnits="userSpaceOnUse" xlink:href="#id8" x1="1417.23" y1="2020.69" x2="1140.08" y2="1519.8">
  </linearGradient>
  <linearGradient id="id13" gradientUnits="userSpaceOnUse" xlink:href="#id6" x1="1649.32" y1="2292.58" x2="1943.25" y2="1788.05">
  </linearGradient>
  <linearGradient id="id14" gradientUnits="userSpaceOnUse" x1="1107.99" y1="1130.21" x2="1107.99" y2="2297.92">
   <stop offset="0" style="stop-opacity:1; stop-color:#B02827"/>
   <stop offset="0.501961" style="stop-opacity:1; stop-color:#D62226"/>
   <stop offset="0.988235" style="stop-opacity:1; stop-color:#A82827"/>
   <stop offset="1" style="stop-opacity:1; stop-color:#A82827"/>
  </linearGradient>
  <linearGradient id="id15" gradientUnits="userSpaceOnUse" xlink:href="#id14" x1="1971.52" y1="1130.97" x2="1971.52" y2="2298.03">
  </linearGradient>
  <linearGradient id="id16" gradientUnits="userSpaceOnUse" xlink:href="#id8" x1="976.84" y1="1689.36" x2="1317.15" y2="1928.25">
  </linearGradient>
  <linearGradient id="id17" gradientUnits="userSpaceOnUse" xlink:href="#id2" x1="1517" y1="1264.14" x2="1514.48" y2="1725.85">
  </linearGradient>
  <linearGradient id="id18" gradientUnits="userSpaceOnUse" xlink:href="#id6" x1="2045.63" y1="1600.65" x2="1677.15" y2="1963.89">
  </linearGradient>
 </defs>
 <g id="Layer_x0020_1">
  <metadata id="CorelCorpID_0Corel-Layer"/>
  <g id="_2277875794048">
   <path class="fil0" d="M138.93 1382.28c21.88,-19.57 43.32,-39.76 65.84,-58.53 310.09,-258.4 620.33,-516.57 930.4,-774.94 127,-105.78 253.48,-211.89 380.31,-317.84 5.68,-4.68 11.34,-9.16 19.14,-15.37 466.42,388.67 932.52,776.93 1398.45,1165.22 -1.15,1.49 -2.12,2.98 -3.09,4.47 -464.47,-290.95 -928.94,-581.86 -1395.04,-873.78 -19.46,11.9 -38.93,23.49 -58.07,35.53 -441.09,276.2 -882.22,552.47 -1323.34,828.64 -4.37,2.78 -9.57,4.58 -14.29,6.84l-0.31 -0.24z"/>
   <path class="fil1" d="M1590.89 983.44c-59.66,0 -60.64,-0.94 -60.01,-60.92 0.17,-6.69 -0.14,-13.39 0.17,-20.08 1.15,-24.35 9.09,-32.37 33.23,-32.85 18.01,-0.35 36.19,-0.45 54.19,-0.11 23.04,0.49 31.78,8.92 32.44,31.54 0.48,16.72 0.48,33.47 0,50.23 -0.49,22.65 -9.4,31.43 -31.81,32.12 -9.4,0.31 -18.81,0.07 -28.21,0.07z"/>
   <path class="fil2" d="M1448.18 983.34c-59.67,-0.04 -59.67,-0.04 -59.53,-60.68 0.17,-51.62 1.45,-52.87 53.04,-52.83 12,0 24.01,-0.14 36.01,-0.04 18.8,0.21 28.55,9.68 28.86,28.48 0.17,17.38 0.49,34.77 0.17,52.14 -0.34,24.46 -8.11,32.3 -32.43,32.89 -8.74,0.25 -17.52,0.04 -26.12,0.04z"/>
   <path class="fil3" d="M1590.09 846.83c-57.09,-0.42 -57.09,-0.42 -56.92,-56.55 0.31,-56.37 0.31,-56.37 57.41,-56.65 60.5,-0.27 60.5,-0.27 60.33,59.95 0,4.68 -0.18,9.37 -0.18,14.05 -0.17,32.19 -6.97,39.03 -38.57,39.16 -7.32,0.07 -14.61,0.04 -22.07,0.04z"/>
   <path class="fil4" d="M1447.03 846.34c-57.86,0 -57.86,0 -57.73,-58.24 0,-6.73 0,-13.42 0.18,-20.12 0.49,-24.95 9.09,-33.55 34.21,-33.75 17.34,-0.18 34.86,-0.42 52.24,0.13 21.06,0.7 29.17,8.88 29.83,29.49 0.49,16.76 0.49,33.51 0.32,50.26 -0.32,24.6 -7.95,31.88 -32.93,32.2 -8.6,0.14 -17.34,0.03 -26.12,0.03z"/>
   <path class="fil5" d="M2387.04 1868.06c-61.6,129.85 -155.29,233.01 -266.08,321.68 -165.73,132.6 -543.23,303.62 -583.74,303.62l-0.24 0c-22.18,-7.96 -60.52,-21.04 -82.18,-29.42 -192.54,-72.85 -374.9,-164.26 -532.84,-298.42 -123.17,-104.49 -219.56,-228.03 -270.93,-383.9 -85.96,-261.77 38.53,-554.93 283.77,-664.44 44.12,-19.67 87.96,-31 132.26,-34.12l55.16 0c42.56,3.12 85.3,13.55 127.63,31.41 116.53,48.86 206.04,129.19 265.85,240.93 6.63,12.23 17.06,28.06 21.28,41.66 1.56,-6.12 7.11,-16.11 9.71,-21.52 89.28,-173.3 226.9,-281.21 424.94,-292.06 6.63,-0.42 13.51,-0.42 20.38,-0.42 123.64,0 225.1,62.41 309.07,152.45 159.51,170.79 190.93,411.29 85.96,632.55z"/>
   <path class="fil6" d="M1536.98 2493.36c-22.18,-7.96 -60.52,-21.04 -82.18,-29.42 -192.54,-72.85 -374.9,-164.26 -532.84,-298.42 -123.17,-104.49 -219.56,-228.03 -270.93,-383.9 -85.96,-261.77 38.53,-554.93 283.77,-664.44 44.12,-19.67 87.96,-31 132.26,-34.12 18.39,-1.62 37.01,-1.62 55.16,0 42.56,3.12 85.3,13.55 127.63,31.41 116.53,48.86 206.04,129.19 265.85,240.93 6.63,12.23 17.06,28.06 21.28,41.66 -33.04,-30.8 -71.32,-67.44 -108.14,-93.03 -159.95,-110.84 -333.63,-58.34 -442.62,75.35 -88.43,108.38 -111.89,234.63 -91.94,370.59 7.78,53.12 33.46,130.51 35.02,134.11 5.07,12.69 9.72,25.16 15.26,37.15 2.23,4.93 4.22,9.71 6.64,14.45 59.37,126.01 147.57,229.42 251.02,321.49 87.95,78.48 184.77,144.54 286.7,203.78 11.47,6.82 38.96,19.71 48.06,32.41z"/>
   <path class="fil7" d="M2387.04 1868.06c-61.6,129.85 -155.29,233.01 -266.08,321.68 -165.73,132.6 -543.23,303.62 -583.74,303.62 232.58,-139.61 460.99,-307.46 584.4,-559.72 0,-0.23 0.23,-0.23 0.23,-0.47 9.96,-20.09 44.74,-82.79 59.15,-207 15.26,-131.4 -14.83,-252.44 -101.27,-354.94 -141.32,-167.85 -369.73,-167.62 -512.19,-0.67 -7.3,8.39 -19.05,19.91 -30.56,26.5 1.56,-6.12 7.11,-16.11 9.71,-21.52 89.28,-173.3 226.9,-281.21 424.94,-292.06 6.63,-0.42 13.51,-0.42 20.38,-0.42 123.64,0 225.1,62.41 309.07,152.45 159.51,170.79 190.93,411.29 85.96,632.55z"/>
   <path class="fil8" d="M1381.87 1368.44c0,0 -31.65,252.34 155.77,322.1 0,0 165.49,-83.17 146.24,-322.1 0,0 122.51,142.4 56.44,310.63 -66.01,168.28 -206.47,211.26 -206.47,211.26 0,0 -209.32,-114.68 -232.82,-245.81 -21.95,-122.83 37.86,-221.59 80.84,-276.08z"/>
   <path class="fil9" d="M1615.17 1538.09c0,48.05 -39,86.96 -87.05,86.96 -48.11,0 -87.06,-38.91 -87.06,-86.96 0,-48.06 38.95,-87.01 87.06,-87.01 48.05,0 87.05,38.95 87.05,87.01z"/>
   <path class="fil10" d="M2198.29 1848.21c-481.85,-154.73 -587.1,349.96 -587.1,349.96l-3.75 -8.57c-22.18,-50.66 -127.62,-315.57 29.91,-456.55 175.24,-156.34 335.18,-170.56 334.95,-170.32 -37.44,31.85 -81.33,69.43 -100.38,116.24 -7.29,17.96 -8.81,39.05 5.79,53.7 11.51,11.56 26.34,13.98 41.84,15.4 17.11,1.61 34.12,3.84 51.18,6.73 29.47,5.12 58.48,12.27 87.1,21.61 39.19,12.89 77.29,29.81 112.32,51.84 9.52,6.07 19.47,12.46 28.14,19.96z"/>
   <path class="fil11" d="M1972.53 1562.49c0,0 0,0 -0.23,0.24 -12.42,4.74 -453.52,177.33 -361.11,635.44l-3.75 -8.57c-22.18,-50.66 -127.62,-315.57 29.91,-456.55 175.24,-156.34 335.18,-170.56 335.18,-170.56z"/>
   <path class="fil12" d="M859.92 1848.34c481.86,-154.77 587.11,349.97 587.11,349.97l3.74 -8.62c22.18,-50.66 127.62,-315.57 -30.09,-456.5 -175.05,-156.34 -334.99,-170.6 -334.75,-170.36 37.2,31.84 81.26,69.42 100.13,116.24 7.3,17.96 9.05,39.05 -5.55,53.69 -11.75,11.57 -26.39,13.98 -41.89,15.41 -17.25,1.6 -34.07,3.83 -51.18,6.77 -29.43,5.07 -58.71,12.23 -87.05,21.56 -39.2,12.89 -77.53,29.86 -112.31,51.85 -9.77,6.11 -19.48,12.51 -28.16,19.99z"/>
   <path class="fil13" d="M1085.69 1562.59c0,0 0,0 0.24,0.24 12.36,4.74 453.23,177.37 361.1,635.48l3.74 -8.62c22.18,-50.66 127.62,-315.57 -30.09,-456.5 -175.05,-156.34 -334.99,-170.6 -334.99,-170.6z"/>
   <path class="fil14" d="M2025.7 1671.91c0,25.88 -21.04,46.87 -46.96,46.87 -25.74,0 -46.77,-20.99 -46.77,-46.87 0,-25.87 21.03,-46.86 46.77,-46.86 25.92,0 46.96,20.99 46.96,46.86z"/>
   <path class="fil15" d="M1129.57 1674.28c0,25.93 -20.85,46.88 -46.77,46.88 -25.93,0 -46.96,-20.95 -46.96,-46.88 0,-25.82 21.03,-46.82 46.96,-46.82 25.92,0 46.77,21 46.77,46.82z"/>
   <path class="fil16" d="M2481.03 4295.66c-71.79,0 -132.43,-9.69 -180.11,-28.78 -48.58,-19.4 -87.28,-54 -115.02,-102.84 -15.62,-27.06 -49.92,-97.79 -102.01,-210.16 -21.59,-46.96 -47.52,-73 -77.12,-77.44l-7.02 -1.05 0 -27.56 46.21 0c34.75,0 65.84,-10.54 92.37,-31.35 26.48,-20.69 44.62,-55.33 54,-102.95 3.17,-16.59 4.76,-29.68 4.76,-38.85 0,-64.56 -12.88,-111.57 -38.32,-139.71 -25.6,-28.32 -57.71,-42.46 -98.23,-43.25l-84.75 0 0 706.25c0.72,18.96 7.74,35 21.5,48.72 13.6,13.64 29.54,20.26 48.67,20.26l24.18 0 0 28.71 -388.97 0 0 -28.71 24.12 0c26.58,0 46.37,-11.14 60.4,-34.06 5.75,-10.05 9.09,-21.62 9.81,-34.18l0 -679.67c-0.76,-18.96 -7.79,-35 -21.49,-48.73 -13.65,-13.62 -29.6,-20.26 -48.72,-20.26l-24.12 0 0 -28.69 428.54 0c80.42,0 149.55,17.74 205.35,52.73 28.83,17.81 52.13,42.98 69.06,74.78 16.94,31.71 25.49,73.42 25.49,123.96 0,51.03 -17.87,100.73 -53.11,147.72 -30.27,40.35 -72.59,66.25 -125.97,77.25 37.87,19.58 72.03,52.98 101.8,99.67 87.2,139.68 152.33,223.75 193.55,249.94 19.84,12.18 45.23,18.78 75.48,19.54l8.01 0.21 0 28.5 -128.34 0z"/>
   <path class="fil5" d="M1638.95 4009.51l0 135.29c-2.57,4.76 -5.32,9.37 -8.22,13.87 -3.78,6.03 -7.9,11.83 -12.27,17.53 -2.64,3.46 22.52,115.94 19.67,119.34l-144.77 0 -138.41 0.11c-7.5,-4.78 -11.35,-238.62 -5.32,-336.23l78.44 -2.09 0 -383.39 30.21 -1.81 119.39 0 0 400.55 61.28 36.83z"/>
   <path class="fil17" d="M1717.79 4287.43c-0.23,0.82 -0.45,1.64 -0.72,2.47l-1.86 5.64 -104.98 0 0 -270.85 -38.1 -22.42 0 293.33 -68.14 -0.05 0.12 -283.3 44.13 -33.93 0 -378.89 -89.96 0 0 500.92 35.08 0 0 195.19 -64.57 0 0 -159.96 -55.86 24.79 0 135.28 -382.17 -0.99 -0.83 0c-55.91,0 -108.31,-6.91 -155.68,-20.5 -48.06,-13.82 -84.09,-32.84 -107,-56.63l-1.21 -1.19 -0.59 -1.66c-5.98,-16.27 -9.06,-36.17 -9.06,-59.08 0,-59.98 13.17,-111.99 39.1,-154.7l2.4 -3.95 24.95 0 -1.16 9.28c-0.76,6.07 -1.15,12.33 -1.15,18.52 0,53.83 19.57,101.46 58.22,141.63 38.53,40.14 92.31,60.48 159.78,60.48 52.36,0 93.53,-12.51 122.41,-37.17 28.94,-24.67 42.98,-55.04 42.98,-92.8 0,-21.87 -6.8,-41.01 -20.78,-58.43 -14.47,-17.93 -39.14,-38.38 -73.29,-60.63l-212.8 -140.66c-81.17,-54.33 -122.28,-122.46 -122.28,-202.49 0,-8.55 0.82,-17.11 2.46,-25.55 5.15,-66.1 31.41,-120.1 78.01,-160.39 46.53,-40.29 109.46,-60.68 186.97,-60.68 84.28,0 165.8,12.23 252.27,12.23l-17.33 196.18 -27.96 0 0 -8.22c0,-40.17 -14.41,-71.48 -44.07,-95.76 -29.76,-24.35 -70.16,-36.68 -120.15,-36.68 -60.52,0 -104.76,18.64 -131.5,55.37 -13.65,17.37 -20.46,34.59 -20.46,51.35 0,17.27 3.35,31.97 9.98,43.69 10.74,19.96 34.86,41.99 71.81,65.56l233.63 151.68c75.48,49.49 113.8,115.18 113.8,195.21 0,88.63 -30.91,157.7 -91.83,205.17 -24.12,18.75 -51.52,33.89 -82.11,45.23l195.98 0 0 -311.74 83.8 0 0 -385.2 149.6 0 0 400.55 61.28 36.83 0 257.47 74.6 0 2.31 4.28c0.55,0.98 0.99,2.03 1.32,3.18 1.37,3.95 1.53,8.54 0.61,12.99z"/>
   <path class="fil5" d="M2601.14 4275.2l0 12.23 -120.11 0c-71.03,0 -130.07,-9.37 -177.05,-28.18 -47.03,-18.8 -83.98,-51.85 -110.95,-99.27 -15.51,-26.97 -49.39,-96.8 -101.68,-209.57 -22.91,-49.82 -50.66,-77.17 -83.31,-82.11l0 -12.28 37.98 0c36.72,0 69.24,-11.01 97.4,-33.05 28.19,-22.08 47.21,-58 57.02,-107.88 3.22,-17.15 4.88,-30.59 4.88,-40.4 0,-66.98 -13.49,-115.39 -40.45,-145.27 -26.97,-29.76 -61.68,-45.1 -104.16,-45.93l-93.14 0 0 714.47c0.78,21.27 8.77,39.42 23.9,54.55 15.08,15.12 33.28,22.69 54.55,22.69l15.9 0 0 12.23 -372.53 0 0 -0.12 -70.93 0 0 -267.28c-18.2,-10.74 -35.53,-20.93 -54.55,-32.18l0 299.52 -51.58 0 0 -271.12c14.14,-10.86 29.16,-22.42 44.12,-33.87l0 -391.17 -106.39 0 0 517.36 35.08 0 0 178.74 -48.13 0 0 -164.38c-25.32,11.23 -48.68,21.59 -72.3,32.06l0 132.44 -368.31 0c-1.64,-3.35 -1.37,-6.36 -0.17,-10.15l356.26 0 0 -311.73 83.81 0 0 -385.19 133.15 0 0 396.92c20.61,12.39 40.67,24.5 61.28,36.9l0 261.02 74.56 0c29.43,0 51.9,-12.67 67.42,-38.04 6.52,-11.41 10.2,-24.06 11.01,-37.98l0 -680.16c-0.81,-21.21 -8.77,-39.42 -23.9,-54.49 -15.13,-15.12 -33.26,-22.69 -54.53,-22.69l-15.9 0 0 -12.29 420.32 0c79.28,0 146.25,17.16 201.01,51.48 27.74,17.15 49.83,41.05 66.17,71.7 16.33,30.64 24.5,70.72 24.5,120.09 0,49.46 -17.15,97.04 -51.47,142.81 -34.32,45.77 -84.14,71.86 -149.48,78.44 47.36,15.51 89.02,51.47 124.98,107.83 88.25,141.36 153.59,225.5 196.08,252.41 21.21,13.11 47.79,20.08 79.64,20.89z"/>
   <polygon class="fil5" points="713.38,4312.66 2601.14,4312.66 2601.14,4301.33 713.38,4301.33 "/>
   <path class="fil5" d="M725.83 4156.59c0,-58.69 12.61,-108.82 37.88,-150.4l11.02 0c-0.82,6.54 -1.21,13.06 -1.21,19.57 0,56.25 20.17,105.37 60.52,147.34 40.34,41.99 95.55,62.97 165.65,62.97 54.6,0 97.24,-13.03 127.78,-39.12 30.59,-26.08 45.88,-59.09 45.88,-99.05 0,-23.63 -7.56,-44.82 -22.64,-63.58 -15.07,-18.74 -40.13,-39.53 -75.21,-62.37l-212.74 -140.61c-79.1,-52.97 -118.62,-118.18 -118.62,-195.64 0,-8.14 0.82,-16.3 2.46,-24.45 4.88,-64.39 29.93,-116.16 75.22,-155.29 45.21,-39.13 105.73,-58.7 181.54,-58.7 44.84,0 100.27,4.1 166.32,12.23l77.01 0 -15.9 179.75 -12.22 0c0,-42.38 -15.67,-76.42 -47.09,-102.1 -31.35,-25.68 -73.12,-38.52 -125.31,-38.52 -63.58,0 -109.63,19.56 -138.19,58.7 -14.64,18.76 -21.98,37.5 -21.98,56.23 0,18.76 3.67,34.66 11.03,47.7 11.39,21.2 36.22,44.01 74.53,68.47l233.58 151.62c73.34,48.11 110.02,110.88 110.02,188.31 0,86.42 -29.55,152.64 -88.64,198.69 -59.09,46.07 -137.54,69.09 -235.39,69.09 -55.41,0 -106.56,-6.72 -153.42,-20.17 -46.93,-13.45 -81.36,-31.59 -103.33,-54.42 -5.7,-15.48 -8.55,-34.24 -8.55,-56.25z"/>
   <path class="fil18" d="M1500.19 3400.34c40.78,0 73.85,34.36 73.85,76.74 0,42.39 -33.07,76.74 -73.85,76.74 -40.79,0 -73.85,-34.35 -73.85,-76.74 0,-42.38 33.06,-76.74 73.85,-76.74z"/>
   <path class="fil19" d="M1389.81 3291.24c-1.28,-1.25 -2.29,-2.22 -2.98,-3.05 -2.72,-2.56 -6.29,-6.03 -9.12,-11.34 -59.55,-110.32 -155.74,-196.18 -293.96,-262.47l-10.23 -4.97c-67.27,-32.18 -136.64,-65.49 -202.9,-102.89 -111,-62.69 -191.79,-161.72 -247.08,-302.67 -36.76,-93.87 -57.42,-194.57 -61.41,-299.35 -1.83,-49.62 -1.28,-99.76 -0.58,-148.28 0.3,-19.93 0.58,-39.87 0.73,-59.8 0,-6.27 0.85,-11.88 1.56,-17.31 0.3,-2.16 0.73,-4.45 1,-6.95l3.14 -25.29 26.94 -0.28c42.15,0 74.37,19.78 95.89,58.86 20.23,36.51 26.21,74.91 31.91,112.06 1.12,7.71 2.28,15.45 3.68,23.13l5.43 32.13c8.83,51.87 17.95,105.54 30.08,157.05 11.09,46.91 37.03,88.78 77.2,124.5 40.9,36.33 85.09,74.03 137.67,100.61 23.62,11.94 44.86,27.06 65.37,41.72 12.25,8.75 23.96,17.07 35.9,24.63 4.58,2.89 9.27,5.7 13.84,8.47l-11.7 -10.15c-30.21,-25.94 -61.41,-52.82 -90.61,-81.16 -17.53,-16.82 -27.06,-40.23 -32.92,-56.39 -6.12,-17.37 -1.71,-50.38 19.23,-62.5 7.41,-4.27 16.67,-6.56 26.8,-6.56 12.4,0 24.65,3.3 33.76,9.02 68.27,42.83 149.19,94 231.39,148.58 76.38,50.69 134.22,109.05 176.98,178.48 56.14,91.47 69.52,187.93 39.44,286.68 -9.81,32.33 -20.08,64.54 -30.63,97.64 -4.97,15.33 -29.9,94.03 -29.9,94.03l-33.92 -36.18z"/>
   <path class="fil20" d="M593.76 2060.03c35.33,-0.39 56.85,16.98 71.69,43.86 21.51,39.13 24.78,83.08 32.18,126.06 10.97,63.85 21.09,127.97 35.91,190.94 13.13,55.07 43.61,101.64 86.22,139.53 44.59,39.59 89.91,77.5 143.88,104.87 35.05,17.68 65.56,43.92 98.9,64.98 21.92,13.78 44.74,26.15 68.09,37.09 15.39,7.19 21.82,4.02 33.49,-9.78 -7.98,-24.81 -26.36,-42.4 -46.17,-59.4 -36.48,-31.64 -73.51,-62.79 -108.29,-96.31 -11.94,-11.64 -19.78,-29.02 -25.51,-45.17 -2.83,-7.96 0.58,-24.2 6.28,-27.58 7.56,-4.36 22.68,-3.11 30.51,1.89 77.5,48.58 154.58,97.62 230.81,148.18 67.54,44.83 125.38,99.84 168.27,169.51 50.59,82.36 64.82,169.8 36.48,262.94 -14.39,47.24 -29.66,94.14 -45.45,144.04 -4.14,-4.42 -6.43,-6.04 -7.71,-8.26 -69.4,-128.44 -177.8,-212.95 -307.03,-274.91 -71.1,-34.17 -142.64,-68.15 -211.45,-106.95 -114.99,-65.01 -186.8,-167.11 -234.25,-288.02 -36.49,-93.1 -55.57,-190.21 -59.41,-289.78 -2.56,-68.85 -0.27,-137.88 0.16,-206.85 0,-6.28 1.4,-12.56 2.4,-20.88z"/>
   <path class="fil21" d="M1632.32 3281.12c-3.84,-11.21 -7.68,-22.06 -11.39,-32.76 -8.69,-24.54 -16.98,-47.7 -23.38,-72.2l-3.69 -14.45c-10,-37.7 -20.39,-76.68 -23.1,-116.91 -5.55,-82.78 22.37,-160.28 88.05,-244.1 39.35,-50.04 89.21,-95.09 148.33,-133.89 45.87,-29.98 91.89,-59.46 137.92,-88.96 29.07,-18.62 58.15,-37.19 87.07,-55.87 12.25,-7.92 24.2,-11.94 35.63,-11.94 13.38,0 25.63,5.6 34.31,15.81 13.42,15.48 17.53,42.86 9.27,61.05 -7.56,16.86 -19.96,41.33 -39.31,59.92 -19.39,18.75 -39.9,36.27 -59.86,53.25 -12.38,10.63 -24.93,21.27 -37.19,32.21 0.16,-0.06 0.31,-0.09 0.31,-0.15 15.66,-9.79 31.48,-19.39 47.3,-28.99 39.59,-24.08 80.49,-49 118.25,-76.04 68.09,-48.7 122.53,-91.22 152.45,-157.6 23.5,-52.06 32.92,-107.89 42.19,-170.22l3.25 -23.22c5.43,-37.03 10.98,-75.37 18.96,-113.01 4.7,-21.98 14.69,-45.66 29.66,-70.35 17.8,-29.28 46.72,-45.41 81.34,-45.41 3.26,0 6.4,0.15 9.82,0.4l24.23 2.04 2.28 24.2 1.13 11.03c1.01,8.32 1.86,16.31 2.13,24.33 7.01,139.16 6.01,321.69 -64.09,499.83 -59.28,150.83 -161.44,262.26 -303.77,331.23l-31.09 15c-60.1,29.04 -122.22,59.12 -182.07,90.7 -99.3,52.45 -177.11,127.91 -231.39,224.28 -2.14,3.66 -4.42,7.13 -7.56,11.55l-4.27 6.25 -32.91 48.8 -18.81 -55.81z"/>
   <path class="fil20" d="M2476.1 2061.07c1.13,12.04 2.71,23.01 3.14,34.04 8.26,166.26 -0.31,330.29 -62.15,487.74 -55.98,142.57 -151.01,248.66 -289.35,315.69 -71.68,34.71 -143.64,68.97 -214.02,106.12 -103.71,54.77 -185.51,133.13 -243.21,235.78 -2.56,4.48 -5.7,8.56 -10.69,15.78 -12.1,-36.24 -25.24,-69.09 -34.05,-103.04 -10.82,-41.51 -23.07,-83.57 -25.94,-126 -5.85,-85.58 30.36,-158.39 81.93,-224.13 39.74,-50.59 87.78,-92.41 141.35,-127.52 74.52,-48.83 149.89,-96.4 224.84,-144.74 10.82,-7.1 23.77,-11.3 32.06,-1.61 5.82,6.8 8.53,22.09 4.85,30.08 -8.3,18.32 -18.69,37.18 -32.95,50.96 -32.61,31.51 -68.67,59.49 -102.13,90.09 -14.26,12.92 -26.36,28.34 -38.07,43.76 -3.26,4.55 -4.26,14.79 -1.28,19.12 2.87,4.45 11.83,6.52 18.26,6.58 6.7,0.03 13.96,-2.53 20.21,-5.64 14.26,-7.07 28.37,-14.54 41.75,-22.95 56.02,-34.93 113.56,-67.72 167.14,-106.06 64.25,-45.93 127.94,-93.75 162.02,-169.31 25.63,-56.65 35.48,-117.12 44.43,-177.93 6.56,-44.92 12.41,-90.06 21.95,-134.34 4.57,-21.43 14.69,-42.49 26.09,-61.35 13.53,-22.25 35.17,-33.5 63.82,-31.12z"/>
  </g>
 </g>
</svg>
