<?xml version="1.0" encoding="UTF-8"?>
<!DOCTYPE svg PUBLIC "-//W3C//DTD SVG 1.1//EN" "http://www.w3.org/Graphics/SVG/1.1/DTD/svg11.dtd">
<!-- Creator: CorelDRAW 2020 (64-Bit) -->
<svg xmlns="http://www.w3.org/2000/svg" xml:space="preserve" width="81mm" height="60mm" version="1.1" style="shape-rendering:geometricPrecision; text-rendering:geometricPrecision; image-rendering:optimizeQuality; fill-rule:evenodd; clip-rule:evenodd"
viewBox="0 0 8100 6000"
 xmlns:xlink="http://www.w3.org/1999/xlink"
 xmlns:xodm="http://www.corel.com/coreldraw/odm/2003">
 <defs>
  <style type="text/css">
   <![CDATA[
    .fil18 {fill:#AD8241}
    .fil5 {fill:#FEFEFE;fill-rule:nonzero}
    .fil19 {fill:#F5DF89;fill-rule:nonzero}
    .fil28 {fill:#E4D182;fill-rule:nonzero}
    .fil23 {fill:url(#id0)}
    .fil16 {fill:url(#id1)}
    .fil24 {fill:url(#id2)}
    .fil14 {fill:url(#id3)}
    .fil26 {fill:url(#id4)}
    .fil21 {fill:url(#id5)}
    .fil25 {fill:url(#id6)}
    .fil3 {fill:url(#id7)}
    .fil17 {fill:url(#id8)}
    .fil15 {fill:url(#id9)}
    .fil9 {fill:url(#id10)}
    .fil29 {fill:url(#id11)}
    .fil22 {fill:url(#id12)}
    .fil27 {fill:url(#id13)}
    .fil0 {fill:url(#id14)}
    .fil4 {fill:url(#id15)}
    .fil2 {fill:url(#id16)}
    .fil1 {fill:url(#id17)}
    .fil20 {fill:url(#id18)}
    .fil10 {fill:url(#id19)}
    .fil7 {fill:url(#id20)}
    .fil13 {fill:url(#id21)}
    .fil11 {fill:url(#id22)}
    .fil12 {fill:url(#id23)}
    .fil8 {fill:url(#id24)}
    .fil6 {fill:url(#id25)}
   ]]>
  </style>
  <linearGradient id="id0" gradientUnits="userSpaceOnUse" x1="2850.69" y1="5864.38" x2="2942.87" y2="5864.38">
   <stop offset="0" style="stop-opacity:1; stop-color:#A7793C"/>
   <stop offset="0.0784314" style="stop-opacity:1; stop-color:#A7793C"/>
   <stop offset="0.54902" style="stop-opacity:1; stop-color:#EFE292"/>
   <stop offset="1" style="stop-opacity:1; stop-color:#A47A2F"/>
  </linearGradient>
  <linearGradient id="id1" gradientUnits="userSpaceOnUse" xlink:href="#id0" x1="3994.31" y1="4301.67" x2="5083.19" y2="4301.67">
  </linearGradient>
  <linearGradient id="id2" gradientUnits="userSpaceOnUse" xlink:href="#id0" x1="4295.5" y1="5864.38" x2="4387.67" y2="5864.38">
  </linearGradient>
  <linearGradient id="id3" gradientUnits="userSpaceOnUse" x1="4288.53" y1="1736.61" x2="4398.43" y2="1736.61">
   <stop offset="0" style="stop-opacity:1; stop-color:#EA5B21"/>
   <stop offset="1" style="stop-opacity:1; stop-color:#FCCD00"/>
  </linearGradient>
  <linearGradient id="id4" gradientUnits="userSpaceOnUse" xlink:href="#id0" x1="2525.57" y1="5864.59" x2="5353.61" y2="5864.59">
  </linearGradient>
  <linearGradient id="id5" gradientUnits="userSpaceOnUse" xlink:href="#id0" x1="3681.35" y1="5894.18" x2="3724.81" y2="5894.18">
  </linearGradient>
  <linearGradient id="id6" gradientUnits="userSpaceOnUse" xlink:href="#id0" x1="4121.02" y1="5841.82" x2="4180.86" y2="5841.82">
  </linearGradient>
  <linearGradient id="id7" gradientUnits="userSpaceOnUse" xlink:href="#id0" x1="3820.86" y1="702.44" x2="3958.52" y2="702.44">
  </linearGradient>
  <linearGradient id="id8" gradientUnits="userSpaceOnUse" xlink:href="#id0" x1="2862.55" y1="4282.15" x2="4037.54" y2="4282.15">
  </linearGradient>
  <linearGradient id="id9" gradientUnits="userSpaceOnUse" x1="3237.28" y1="1739.41" x2="3347.18" y2="1739.41">
   <stop offset="0" style="stop-opacity:1; stop-color:#ABC922"/>
   <stop offset="1" style="stop-opacity:1; stop-color:#20863E"/>
  </linearGradient>
  <linearGradient id="id10" gradientUnits="userSpaceOnUse" x1="3816.83" y1="1258.26" x2="3813.47" y2="1799.87">
   <stop offset="0" style="stop-opacity:1; stop-color:#1AB5C1"/>
   <stop offset="0.988235" style="stop-opacity:1; stop-color:#2D3152"/>
   <stop offset="1" style="stop-opacity:1; stop-color:#2D3152"/>
  </linearGradient>
  <linearGradient id="id11" gradientUnits="userSpaceOnUse" xlink:href="#id0" x1="3869.6" y1="2933.39" x2="4963" y2="2933.39">
  </linearGradient>
  <linearGradient id="id12" gradientUnits="userSpaceOnUse" xlink:href="#id0" x1="3697.28" y1="5831.32" x2="3726.54" y2="5831.32">
  </linearGradient>
  <linearGradient id="id13" gradientUnits="userSpaceOnUse" xlink:href="#id0" x1="2680.76" y1="2927.4" x2="3764.97" y2="2927.4">
  </linearGradient>
  <linearGradient id="id14" gradientUnits="userSpaceOnUse" xlink:href="#id0" x1="2185.12" y1="714.3" x2="5462.81" y2="714.3">
  </linearGradient>
  <linearGradient id="id15" gradientUnits="userSpaceOnUse" xlink:href="#id0" x1="3652.08" y1="702.38" x2="3788.92" y2="702.38">
  </linearGradient>
  <linearGradient id="id16" gradientUnits="userSpaceOnUse" xlink:href="#id0" x1="3651.32" y1="862.23" x2="3789.63" y2="862.23">
  </linearGradient>
  <linearGradient id="id17" gradientUnits="userSpaceOnUse" xlink:href="#id0" x1="3818.64" y1="862.05" x2="3959.16" y2="862.05">
  </linearGradient>
  <linearGradient id="id18" gradientUnits="userSpaceOnUse" xlink:href="#id0" x1="3953.29" y1="5843.15" x2="4006.58" y2="5843.15">
  </linearGradient>
  <linearGradient id="id19" gradientUnits="userSpaceOnUse" xlink:href="#id3" x1="3956.95" y1="2464.7" x2="4301.75" y2="1872.84">
  </linearGradient>
  <linearGradient id="id20" gradientUnits="userSpaceOnUse" x1="4334.92" y1="1102.04" x2="4334.92" y2="2471.11">
   <stop offset="0" style="stop-opacity:1; stop-color:#B02827"/>
   <stop offset="0.501961" style="stop-opacity:1; stop-color:#D62226"/>
   <stop offset="0.988235" style="stop-opacity:1; stop-color:#A82827"/>
   <stop offset="1" style="stop-opacity:1; stop-color:#A82827"/>
  </linearGradient>
  <linearGradient id="id21" gradientUnits="userSpaceOnUse" xlink:href="#id9" x1="3684.69" y1="2145.75" x2="3359.57" y2="1558.16">
  </linearGradient>
  <linearGradient id="id22" gradientUnits="userSpaceOnUse" xlink:href="#id3" x1="4421.87" y1="1653" x2="3989.6" y2="2079.12">
  </linearGradient>
  <linearGradient id="id23" gradientUnits="userSpaceOnUse" xlink:href="#id9" x1="3168.07" y1="1757.07" x2="3567.29" y2="2037.31">
  </linearGradient>
  <linearGradient id="id24" gradientUnits="userSpaceOnUse" xlink:href="#id10" x1="3801.72" y1="1258.26" x2="3798.76" y2="1799.87">
  </linearGradient>
  <linearGradient id="id25" gradientUnits="userSpaceOnUse" xlink:href="#id20" x1="3321.92" y1="1101.14" x2="3321.92" y2="2470.97">
  </linearGradient>
 </defs>
 <g id="Layer_x0020_1">
  <metadata id="CorelCorpID_0Corel-Layer"/>
  <g id="_2277861127680">
   <path class="fil0" d="M2185.13 1396.84c25.67,-22.96 50.82,-46.64 77.23,-68.66 363.78,-303.13 727.71,-605.99 1091.45,-909.08 148.98,-124.08 297.35,-248.57 446.13,-372.85 6.68,-5.5 13.31,-10.74 22.47,-18.03 547.14,455.95 1093.92,911.41 1640.5,1366.91 -1.35,1.75 -2.49,3.5 -3.63,5.24 -544.86,-341.3 -1089.73,-682.57 -1636.51,-1025.02 -22.83,13.96 -45.66,27.55 -68.12,41.67 -517.44,324.01 -1034.92,648.11 -1552.39,972.08 -5.13,3.26 -11.23,5.37 -16.77,8.02l-0.36 -0.28z"/>
   <path class="fil1" d="M3888.41 928.96c-69.99,0 -71.13,-1.1 -70.4,-71.46 0.21,-7.85 -0.16,-15.71 0.21,-23.56 1.34,-28.56 10.66,-37.97 38.98,-38.54 21.12,-0.41 42.45,-0.52 63.57,-0.12 27.02,0.57 37.27,10.46 38.05,37 0.56,19.61 0.56,39.27 0,58.92 -0.57,26.57 -11.03,36.87 -37.32,37.68 -11.03,0.37 -22.06,0.08 -33.09,0.08z"/>
   <path class="fil2" d="M3720.99 928.85c-69.99,-0.05 -69.99,-0.05 -69.83,-71.18 0.21,-60.56 1.71,-62.02 62.22,-61.98 14.09,0 28.17,-0.17 42.25,-0.04 22.05,0.24 33.49,11.35 33.85,33.41 0.21,20.39 0.57,40.78 0.21,61.16 -0.41,28.69 -9.53,37.89 -38.05,38.58 -10.26,0.29 -20.55,0.05 -30.65,0.05z"/>
   <path class="fil3" d="M3887.48 768.7c-66.98,-0.48 -66.98,-0.48 -66.78,-66.33 0.36,-66.12 0.36,-66.12 67.35,-66.45 70.97,-0.33 70.97,-0.33 70.77,70.32 0,5.49 -0.21,10.99 -0.21,16.48 -0.2,37.77 -8.18,45.79 -45.25,45.95 -8.58,0.08 -17.13,0.03 -25.88,0.03z"/>
   <path class="fil4" d="M3719.65 768.14c-67.88,0 -67.88,0 -67.72,-68.33 0,-7.89 0,-15.75 0.21,-23.6 0.57,-29.26 10.66,-39.35 40.13,-39.6 20.34,-0.2 40.9,-0.49 61.28,0.16 24.71,0.82 34.22,10.42 35,34.59 0.57,19.66 0.57,39.32 0.37,58.97 -0.37,28.86 -9.32,37.4 -38.63,37.77 -10.09,0.16 -20.34,0.04 -30.64,0.04z"/>
   <path class="fil5" d="M4822.37 1966.71c-72.27,152.32 -182.17,273.34 -312.14,377.35 -194.41,155.55 -637.25,356.18 -684.78,356.18l-0.28 0c-26.02,-9.34 -71,-24.69 -96.4,-34.52 -225.87,-85.45 -439.79,-192.68 -625.08,-350.06 -144.48,-122.59 -257.55,-267.51 -317.82,-450.36 -100.84,-307.08 45.2,-650.98 332.89,-779.45 51.76,-23.08 103.18,-36.36 155.15,-40.03l64.71 0c49.93,3.67 100.07,15.9 149.71,36.86 136.71,57.31 241.71,151.55 311.88,282.63 7.78,14.34 20.01,32.91 24.96,48.87 1.83,-7.18 8.34,-18.91 11.39,-25.24 104.74,-203.31 266.18,-329.89 498.49,-342.62 7.78,-0.5 15.85,-0.5 23.91,-0.5 145.04,0 264.06,73.22 362.57,178.84 187.12,200.35 223.98,482.49 100.84,742.05z"/>
   <path class="fil6" d="M3825.17 2700.24c-26.02,-9.34 -71,-24.69 -96.4,-34.52 -225.87,-85.45 -439.79,-192.68 -625.08,-350.06 -144.48,-122.59 -257.55,-267.51 -317.82,-450.36 -100.84,-307.08 45.2,-650.98 332.89,-779.45 51.76,-23.08 103.18,-36.36 155.15,-40.03 21.57,-1.89 43.42,-1.89 64.71,0 49.93,3.67 100.07,15.9 149.71,36.86 136.71,57.31 241.71,151.55 311.88,282.63 7.78,14.34 20.01,32.91 24.96,48.87 -38.75,-36.14 -83.67,-79.12 -126.86,-109.14 -187.63,-130.02 -391.37,-68.43 -519.23,88.4 -103.74,127.14 -131.26,275.24 -107.86,434.73 9.13,62.32 39.26,153.1 41.09,157.32 5.95,14.9 11.4,29.52 17.9,43.59 2.61,5.78 4.95,11.39 7.78,16.95 69.66,147.82 173.12,269.13 294.47,377.14 103.18,92.06 216.75,169.55 336.33,239.04 13.46,8.01 45.7,23.13 56.38,38.03z"/>
   <path class="fil7" d="M4822.37 1966.71c-72.27,152.32 -182.17,273.34 -312.14,377.35 -194.41,155.55 -637.25,356.18 -684.78,356.18 272.84,-163.77 540.79,-360.68 685.55,-656.6 0,-0.27 0.28,-0.27 0.28,-0.55 11.68,-23.58 52.48,-97.12 69.38,-242.83 17.9,-154.16 -17.4,-296.14 -118.8,-416.38 -165.78,-196.91 -433.73,-196.63 -600.84,-0.78 -8.56,9.84 -22.34,23.35 -35.85,31.08 1.83,-7.18 8.34,-18.91 11.39,-25.24 104.74,-203.31 266.18,-329.89 498.49,-342.62 7.78,-0.5 15.85,-0.5 23.91,-0.5 145.04,0 264.06,73.22 362.57,178.84 187.12,200.35 223.98,482.49 100.84,742.05z"/>
   <path class="fil8" d="M3643.21 1380.6c0,0 -37.13,296.03 182.74,377.86 0,0 194.12,-97.57 171.55,-377.86 0,0 143.71,167.05 66.21,364.41 -77.44,197.4 -242.21,247.82 -242.21,247.82 0,0 -245.55,-134.53 -273.12,-288.36 -25.75,-144.09 44.41,-259.94 94.83,-323.87z"/>
   <path class="fil9" d="M3916.89 1579.62c0,56.37 -45.75,102.01 -102.12,102.01 -56.43,0 -102.13,-45.64 -102.13,-102.01 0,-56.37 45.7,-102.07 102.13,-102.07 56.37,0 102.12,45.7 102.12,102.07z"/>
   <path class="fil10" d="M4600.95 1943.41c-565.26,-181.5 -688.73,410.55 -688.73,410.55l-4.39 -10.07c-26.02,-59.42 -149.71,-370.18 35.08,-535.57 205.58,-183.4 393.2,-200.07 392.93,-199.79 -43.93,37.35 -95.41,81.44 -117.75,136.36 -8.56,21.07 -10.34,45.81 6.78,62.99 13.51,13.56 30.91,16.39 49.09,18.07 20.07,1.88 40.03,4.5 60.04,7.89 34.57,6 68.6,14.4 102.17,25.35 45.98,15.12 90.68,34.97 131.76,60.82 11.17,7.11 22.85,14.61 33.02,23.4z"/>
   <path class="fil11" d="M4336.11 1608.25c0,0 0,0 -0.27,0.28 -14.57,5.55 -532.02,208.02 -423.62,745.43l-4.39 -10.07c-26.02,-59.42 -149.71,-370.18 35.08,-535.57 205.58,-183.4 393.2,-200.07 393.2,-200.07z"/>
   <path class="fil12" d="M3030.92 1943.57c565.26,-181.55 688.73,410.55 688.73,410.55l4.39 -10.11c26.02,-59.43 149.71,-370.19 -35.3,-535.52 -205.36,-183.4 -392.98,-200.13 -392.7,-199.85 43.64,37.35 95.34,81.44 117.47,136.37 8.56,21.07 10.61,45.8 -6.51,62.98 -13.79,13.57 -30.96,16.39 -49.14,18.07 -20.24,1.88 -39.97,4.5 -60.04,7.95 -34.52,5.94 -68.88,14.34 -102.12,25.29 -45.98,15.12 -90.95,35.02 -131.75,60.82 -11.46,7.17 -22.86,14.67 -33.03,23.45z"/>
   <path class="fil13" d="M3295.76 1608.36c0,0 0,0 0.28,0.28 14.51,5.56 531.68,208.08 423.61,745.48l4.39 -10.11c26.02,-59.43 149.71,-370.19 -35.3,-535.52 -205.36,-183.4 -392.98,-200.13 -392.98,-200.13z"/>
   <path class="fil14" d="M4398.48 1736.61c0,30.35 -24.67,54.98 -55.09,54.98 -30.19,0 -54.86,-24.63 -54.86,-54.98 0,-30.35 24.67,-54.98 54.86,-54.98 30.42,0 55.09,24.63 55.09,54.98z"/>
   <path class="fil15" d="M3347.24 1739.38c0,30.42 -24.46,54.99 -54.87,54.99 -30.41,0 -55.09,-24.57 -55.09,-54.99 0,-30.29 24.68,-54.92 55.09,-54.92 30.41,0 54.87,24.63 54.87,54.92z"/>
   <path class="fil16" d="M4932.63 4814.5c-84.22,0 -155.35,-11.37 -211.29,-33.76 -56.99,-22.76 -102.38,-63.36 -134.93,-120.64 -18.32,-31.75 -58.56,-114.72 -119.66,-246.53 -25.33,-55.1 -55.76,-85.65 -90.47,-90.86l-8.24 -1.22 0 -32.34 54.21 0c40.77,0 77.23,-12.37 108.36,-36.77 31.06,-24.28 52.34,-64.91 63.34,-120.77 3.73,-19.46 5.59,-34.82 5.59,-45.58 0,-75.74 -15.11,-130.88 -44.96,-163.89 -30.02,-33.22 -67.7,-49.81 -115.22,-50.73l-99.42 0 0 828.49c0.84,22.24 9.07,41.06 25.21,57.16 15.96,15.99 34.66,23.76 57.1,23.76l28.36 0 0 33.68 -456.3 0 0 -33.68 28.3 0c31.18,0 54.4,-13.06 70.86,-39.95 6.74,-11.79 10.66,-25.37 11.5,-40.1l0 -797.31c-0.89,-22.24 -9.13,-41.06 -25.21,-57.17 -16.01,-15.98 -34.72,-23.77 -57.15,-23.77l-28.3 0 0 -33.65 502.72 0c94.35,0 175.44,20.81 240.9,61.85 33.82,20.9 61.15,50.43 81.01,87.73 19.88,37.2 29.91,86.12 29.91,145.42 0,59.86 -20.97,118.16 -62.31,173.29 -35.51,47.33 -85.15,77.71 -147.77,90.61 44.42,22.98 84.49,62.15 119.42,116.92 102.29,163.87 178.69,262.49 227.05,293.2 23.27,14.3 53.05,22.04 88.54,22.93l9.4 0.25 0 33.43 -150.55 0z"/>
   <path class="fil5" d="M3944.79 4478.82l0 158.7c-3.02,5.59 -6.24,10.99 -9.64,16.28 -4.44,7.07 -9.27,13.88 -14.4,20.56 -3.09,4.06 26.43,136.01 23.08,140l-169.83 0 -162.36 0.12c-8.81,-5.6 -13.32,-279.91 -6.25,-394.42l92.02 -2.45 0 -449.75 35.43 -2.13 140.06 0 0 469.88 71.89 43.21z"/>
   <path class="fil17" d="M4037.27 4804.84c-0.26,0.96 -0.52,1.93 -0.84,2.9l-2.19 6.62 -123.14 0 0 -317.73 -44.69 -26.3 0 344.1 -79.94 -0.06 0.14 -332.33 51.76 -39.81 0 -444.47 -105.53 0 0 587.62 41.16 0 0 228.98 -75.75 0 0 -187.65 -65.53 29.08 0 158.69 -448.32 -1.15 -0.97 0c-65.59,0 -127.06,-8.1 -182.63,-24.05 -56.38,-16.21 -98.64,-38.53 -125.51,-66.43l-1.42 -1.41 -0.7 -1.94c-7.02,-19.09 -10.62,-42.43 -10.62,-69.31 0,-70.36 15.44,-131.37 45.86,-181.47l2.82 -4.63 29.27 0 -1.36 10.88c-0.9,7.12 -1.35,14.47 -1.35,21.73 0,63.15 22.96,119.02 68.29,166.15 45.2,47.08 108.29,70.95 187.44,70.95 61.42,0 109.71,-14.68 143.59,-43.61 33.96,-28.94 50.43,-64.56 50.43,-108.87 0,-25.65 -7.98,-48.1 -24.38,-68.54 -16.97,-21.03 -45.91,-45.02 -85.98,-71.13l-249.63 -165c-95.22,-63.73 -143.45,-143.66 -143.45,-237.54 0,-10.03 0.97,-20.07 2.89,-29.97 6.04,-77.54 36.85,-140.9 91.51,-188.16 54.58,-47.26 128.41,-71.18 219.34,-71.18 98.87,0 194.49,14.35 295.93,14.35l-20.33 230.13 -32.79 0 0 -9.64c0,-47.12 -16.91,-83.85 -51.71,-112.34 -34.91,-28.55 -82.3,-43.02 -140.95,-43.02 -70.99,0 -122.89,21.87 -154.26,64.95 -16.01,20.38 -23.99,40.58 -23.99,60.25 0,20.26 3.92,37.49 11.71,51.25 12.6,23.41 40.89,49.25 84.23,76.9l274.07 177.94c88.54,58.06 133.49,135.11 133.49,228.99 0,103.98 -36.25,185.01 -107.71,240.69 -28.3,21.99 -60.44,39.75 -96.33,53.05l229.9 0 0 -365.69 98.31 0 0 -451.88 175.49 0 0 469.88 71.89 43.21 0 302.03 87.52 0 2.7 5.02c0.65,1.16 1.16,2.38 1.55,3.73 1.6,4.64 1.8,10.03 0.71,15.24z"/>
   <path class="fil5" d="M5073.52 4790.49l0 14.35 -140.89 0c-83.33,0 -152.59,-10.99 -207.7,-33.05 -55.17,-22.05 -98.52,-60.83 -130.15,-116.45 -18.2,-31.64 -57.94,-113.56 -119.29,-245.85 -26.87,-58.44 -59.42,-90.53 -97.73,-96.32l0 -14.4 44.56 0c43.08,0 81.22,-12.92 114.26,-38.78 33.07,-25.9 55.38,-68.03 66.89,-126.55 3.78,-20.12 5.72,-35.88 5.72,-47.4 0,-78.57 -15.82,-135.36 -47.45,-170.41 -31.64,-34.91 -72.35,-52.9 -122.19,-53.88l-109.26 0 0 838.14c0.91,24.95 10.29,46.24 28.04,63.99 17.69,17.74 39.03,26.61 63.99,26.61l18.65 0 0 14.35 -437.01 0 0 -0.14 -83.21 0 0 -313.54c-21.35,-12.6 -41.68,-24.56 -63.99,-37.75l0 351.36 -60.5 0 0 -318.04c16.58,-12.74 34.2,-26.3 51.76,-39.74l0 -458.87 -124.82 0 0 606.9 41.16 0 0 209.68 -56.47 0 0 -192.83c-29.7,13.18 -57.1,25.32 -84.81,37.61l0 155.36 -432.06 0c-1.93,-3.92 -1.61,-7.45 -0.19,-11.9l417.92 0 0 -365.69 98.32 0 0 -451.87 156.19 0 0 465.63c24.18,14.53 47.71,28.74 71.89,43.28l0 306.2 87.46 0c34.52,0 60.89,-14.85 79.09,-44.62 7.65,-13.38 11.97,-28.22 12.92,-44.55l0 -797.89c-0.95,-24.88 -10.29,-46.24 -28.04,-63.92 -17.74,-17.74 -39.02,-26.61 -63.97,-26.61l-18.65 0 0 -14.42 493.07 0c93,0 171.57,20.12 235.81,60.38 32.54,20.13 58.46,48.16 77.61,84.12 19.17,35.94 28.75,82.95 28.75,140.88 0,58.01 -20.12,113.83 -60.38,167.52 -40.26,53.7 -98.71,84.3 -175.35,92.02 55.56,18.2 104.43,60.37 146.61,126.49 103.53,165.83 180.18,264.54 230.02,296.11 24.88,15.37 56.06,23.54 93.42,24.49z"/>
   <polygon class="fil5" points="2859.01,4834.44 5073.52,4834.44 5073.52,4821.15 2859.01,4821.15 "/>
   <path class="fil5" d="M2873.62 4651.36c0,-68.86 14.79,-127.66 44.43,-176.43l12.93 0c-0.96,7.67 -1.42,15.32 -1.42,22.95 0,65.99 23.66,123.61 70.99,172.85 47.33,49.26 112.09,73.86 194.33,73.86 64.05,0 114.07,-15.28 149.89,-45.88 35.89,-30.6 53.83,-69.33 53.83,-116.21 0,-27.71 -8.88,-52.57 -26.56,-74.58 -17.68,-21.98 -47.07,-46.36 -88.23,-73.16l-249.56 -164.95c-92.79,-62.14 -139.16,-138.64 -139.16,-229.5 0,-9.55 0.97,-19.12 2.89,-28.68 5.72,-75.54 35.12,-136.27 88.24,-182.17 53.04,-45.9 124.03,-68.86 212.97,-68.86 52.6,0 117.62,4.8 195.1,14.35l90.34 0 -18.65 210.86 -14.33 0c0,-49.72 -18.39,-89.66 -55.24,-119.78 -36.78,-30.12 -85.78,-45.19 -147,-45.19 -74.59,0 -128.61,22.95 -162.12,68.86 -17.16,22.01 -25.77,43.99 -25.77,65.97 0,22.01 4.3,40.66 12.92,55.96 13.37,24.87 42.49,51.62 87.45,80.31l274 177.87c86.03,56.44 129.06,130.07 129.06,220.91 0,101.37 -34.66,179.06 -103.97,233.08 -69.33,54.04 -161.35,81.04 -276.14,81.04 -65,0 -125,-7.88 -179.98,-23.66 -55.05,-15.78 -95.43,-37.05 -121.21,-63.84 -6.69,-18.15 -10.03,-40.16 -10.03,-65.98z"/>
   <path class="fil18" d="M3782.01 3764.21c47.84,0 86.63,40.3 86.63,90.02 0,49.72 -38.79,90.03 -86.63,90.03 -47.84,0 -86.63,-40.31 -86.63,-90.03 0,-49.72 38.79,-90.02 86.63,-90.02z"/>
   <path class="fil19" d="M332.12 4935.39c6.6,0 9.9,4.23 9.9,12.67l0 54.68c0,8.43 -3.3,12.66 -9.9,12.66l-224.2 0c-8.66,0 -14.85,2.88 -18.36,8.64 -3.5,5.75 -5.36,13.61 -5.36,23.59l0 19.58c0,21.49 7.84,32.24 23.31,32.24l167.89 0c25.99,0 45.37,8.51 58.57,25.59 13.2,17.08 19.8,41.56 19.8,73.39l0 46.05c0,28.01 -6.6,50.66 -19.38,67.92 -12.79,17.26 -32.8,25.89 -60.02,25.89l-247.92 0c-6.8,0 -10.31,-4.21 -10.31,-12.67l0 -54.68c0,-8.43 3.51,-12.64 10.31,-12.64l235.13 0c8.46,0 14.64,-2.89 18.15,-8.64 3.71,-5.76 5.57,-13.61 5.57,-23.6l0 -23.61c0,-21.47 -7.84,-32.22 -23.31,-32.22l-167.89 0c-25.99,0 -45.58,-8.54 -58.57,-25.62 -13.2,-17.05 -19.8,-41.51 -19.8,-73.38l0 -42.01c0,-28.01 6.39,-50.64 19.38,-67.92 12.79,-17.27 32.59,-25.91 59.82,-25.91l237.19 0z"/>
   <path class="fil19" d="M547.03 4935.39c6.6,0 12.17,0.58 16.92,1.73 4.95,1.16 9.07,3.37 12.58,6.63 3.5,3.26 6.8,7.67 9.69,13.22 2.68,5.59 5.57,12.97 8.66,22.17l93.02 276.27c1.24,3.45 3.3,5.18 6.4,5.18l5.36 0c2.89,0 4.95,-1.73 6.19,-5.18l93.22 -276.27c2.89,-9.2 5.78,-16.58 8.67,-22.17 2.88,-5.55 5.98,-9.96 9.48,-13.22 3.72,-3.26 7.84,-5.47 12.38,-6.63 4.74,-1.15 10.31,-1.73 16.91,-1.73l47.85 0c15.47,0 25.99,4.52 31.35,13.53 5.36,9.04 8.05,24.46 8.05,46.33l0 330.37c0,8.46 -3.51,12.67 -10.32,12.67l-45.78 0c-6.4,0 -9.7,-4.21 -9.7,-12.67l0 -300.43c0,-3.83 -1.24,-5.75 -3.71,-5.75l-3.92 0c-3.09,0 -4.95,1.53 -5.77,4.6l-90.55 257.86c-3.5,10.35 -7.22,19.08 -10.93,26.17 -3.71,7.12 -7.63,12.95 -11.96,17.55 -4.54,4.62 -9.28,7.88 -14.85,9.8 -5.57,1.92 -11.97,2.87 -19.39,2.87l-21.66 0c-7.42,0 -13.82,-0.95 -19.39,-2.87 -5.57,-1.92 -10.52,-5.18 -14.85,-9.8 -4.33,-4.6 -8.25,-10.43 -11.96,-17.55 -3.71,-7.09 -7.42,-15.82 -10.93,-26.17l-90.54 -257.86c-0.83,-3.07 -2.69,-4.6 -5.78,-4.6l-4.12 0c-2.27,0 -3.51,1.92 -3.51,5.75l0 300.43c0,8.46 -3.3,12.67 -9.9,12.67l-45.58 0c-6.81,0 -10.32,-4.21 -10.32,-12.67l0 -330.37c0,-21.87 2.69,-37.29 8.05,-46.33 5.36,-9.01 16.09,-13.53 31.76,-13.53l48.88 0z"/>
   <path class="fil19" d="M1158.36 5189.81l153.87 0 -71.16 -168.66c-1.23,-2.68 -2.88,-4.02 -4.74,-4.02l-2.68 0c-2.27,0 -3.92,1.34 -4.95,4.02l-70.34 168.66zm86.84 -254.42c11.34,0 20.83,2.97 28.67,8.93 7.63,5.94 15.26,17.56 22.69,34.82l148.29 345.91c1.44,3.85 1.86,7.01 1.03,9.5 -0.82,2.5 -2.89,3.74 -6.39,3.74l-56.93 0c-5.16,0 -8.45,-2.5 -10.31,-7.47l-31.76 -74.25 -210.38 0 -30.94 74.25c-2.06,4.97 -5.36,7.47 -10.11,7.47l-58.36 0c-3.72,0 -6.19,-1.24 -6.81,-3.74 -0.83,-2.49 -0.41,-5.65 1.03,-9.5l146.85 -345.91c7.43,-17.26 14.85,-28.88 21.86,-34.82 7.22,-5.96 15.68,-8.93 25.17,-8.93l26.4 0z"/>
   <path class="fil19" d="M1604.9 5140.88l171.4 0c15.26,0 25.99,-4.22 32.38,-12.66 6.19,-8.44 9.28,-21.31 9.28,-38.57l0 -24.17c0,-17.27 -3.09,-30.12 -9.28,-38.57 -6.39,-8.44 -17.12,-12.67 -32.38,-12.67l-165.42 0c-3.91,0 -5.98,2.31 -5.98,6.91l0 119.73zm185.42 -205.49c34.24,0 58.78,9.99 73.84,29.95 14.85,19.94 22.28,49.48 22.28,88.63l0 32.79c0,33.02 -5.16,59.09 -15.68,78.3 -10.31,19.18 -27.43,31.45 -50.94,36.81l76.52 122.04c1.44,1.92 1.85,4.81 1.44,8.62 -0.62,3.86 -3.09,5.76 -7.22,5.76l-57.75 0c-3.92,0 -6.6,-0.56 -8.04,-1.72 -1.45,-1.15 -3.1,-3.07 -4.54,-5.75l-70.54 -119.73 -144.79 0 0 114.53c0,8.46 -3.3,12.67 -9.69,12.67l-48.47 0c-6.81,0 -10.31,-4.21 -10.31,-12.67l0 -372.96c0,-11.51 4.53,-17.27 13.4,-17.27l240.49 0z"/>
   <path class="fil19" d="M2330.5 4935.39c6.8,0 10.31,4.23 10.31,12.67l0 56.41c0,8.82 -3.51,13.22 -10.31,13.22l-140.46 0 0 307.93c0,8.46 -3.3,12.67 -9.9,12.67l-48.88 0c-6.4,0 -9.69,-4.21 -9.69,-12.67l0 -307.93 -140.67 0c-6.81,0 -10.31,-4.4 -10.31,-13.22l0 -56.41c0,-8.44 3.5,-12.67 10.31,-12.67l349.6 0z"/>
   <path class="fil19" d="M2696.6 4935.39c6.59,0 9.69,4.23 9.69,12.67l0 377.56c0,8.46 -3.1,12.67 -9.69,12.67l-48.27 0c-7.01,0 -10.31,-4.21 -10.31,-12.67l0 -377.56c0,-8.44 3.3,-12.67 10.31,-12.67l48.27 0z"/>
   <path class="fil19" d="M2899.34 4935.39c7.22,0 13.2,0.4 17.74,1.16 4.95,0.78 9.07,2.39 12.58,4.88 3.51,2.52 7.01,5.95 10.31,10.36 3.3,4.43 7.02,10.29 11.14,17.57l166.65 280.88c1.04,2.68 3.1,4.02 5.78,4.02l4.12 0c2.27,0 3.51,-1.92 3.51,-5.76l0 -300.44c0,-8.44 3.3,-12.67 9.69,-12.67l47.03 0c6.6,0 9.9,4.23 9.9,12.67l0 330.37c0,23.41 -3.3,39.25 -9.9,47.5 -6.6,8.25 -16.71,12.36 -30.32,12.36l-38.57 0c-6.81,0 -12.58,-0.37 -17.12,-1.14 -4.74,-0.76 -8.87,-2.31 -12.37,-4.62 -3.51,-2.29 -7.01,-5.65 -10.52,-10.06 -3.51,-4.4 -7.43,-10.46 -11.96,-18.13l-166.86 -280.88c-1.86,-2.68 -3.71,-4.02 -5.78,-4.02l-4.12 0c-2.27,0 -3.51,1.92 -3.51,5.75l0 300.43c0,8.46 -3.3,12.67 -9.9,12.67l-47.02 0c-6.81,0 -10.32,-4.21 -10.32,-12.67l0 -330.37c0,-23.39 3.3,-39.21 9.9,-47.48 6.6,-8.23 16.71,-12.38 30.53,-12.38l39.39 0z"/>
   <path class="fil19" d="M3379.5 5250.81c0,5 1.85,7.49 5.77,7.49l146.85 0c13.21,0 24.14,-1.54 33,-4.6 9.08,-3.09 16.3,-8.06 21.87,-14.99 5.36,-6.89 9.28,-16.11 11.75,-27.62 2.48,-11.51 3.51,-25.7 3.51,-42.59l0 -63.32c0,-16.87 -1.03,-31.06 -3.51,-42.59 -2.47,-11.51 -6.39,-20.71 -11.75,-27.62 -5.57,-6.91 -12.79,-11.9 -21.87,-14.97 -8.86,-3.05 -19.79,-4.6 -33,-4.6l-146.85 0c-3.92,0 -5.77,2.68 -5.77,8.06l0 227.35zm154.48 -315.42c24.13,0 44.76,3.16 62.08,9.51 17.33,6.33 31.56,16.11 42.49,29.35 11.14,13.24 19.18,30.11 24.34,50.64 5.36,20.54 8.04,44.82 8.04,72.82l0 78.28c0,28.01 -2.68,52.28 -8.04,72.8 -5.16,20.53 -13.2,37.42 -24.34,50.66 -10.93,13.24 -25.16,23.02 -42.49,29.35 -17.32,6.33 -37.95,9.49 -62.08,9.49l-209.55 0c-8.87,0 -13.41,-5.76 -13.41,-17.27l0 -368.36c0,-11.51 4.54,-17.27 13.41,-17.27l209.55 0z"/>
   <path class="fil19" d="M3839.23 4935.39c6.4,0 9.7,4.23 9.7,12.67l0 377.56c0,8.46 -3.3,12.67 -9.7,12.67l-48.46 0c-6.81,0 -10.32,-4.21 -10.32,-12.67l0 -377.56c0,-8.44 3.51,-12.67 10.32,-12.67l48.46 0z"/>
   <path class="fil19" d="M4073.95 5189.81l154.07 0 -71.16 -168.66c-1.23,-2.68 -2.88,-4.02 -4.95,-4.02l-2.68 0c-2.06,0 -3.71,1.34 -4.95,4.02l-70.33 168.66zm87.04 -254.42c11.34,0 20.83,2.97 28.46,8.93 7.84,5.94 15.47,17.56 22.9,34.82l148.09 345.91c1.44,3.85 1.85,7.01 1.23,9.5 -0.82,2.5 -3.09,3.74 -6.6,3.74l-56.72 0c-5.15,0 -8.45,-2.5 -10.31,-7.47l-31.76 -74.25 -210.38 0 -30.94 74.25c-2.06,4.97 -5.57,7.47 -10.31,7.47l-58.16 0c-3.92,0 -6.19,-1.24 -6.81,-3.74 -0.83,-2.49 -0.41,-5.65 1.03,-9.5l146.85 -345.91c7.43,-17.26 14.65,-28.88 21.86,-34.82 7.23,-5.96 15.47,-8.93 25.17,-8.93l26.4 0z"/>
   <path class="fil19" d="M4724.27 5140.88l171.39 0c15.26,0 25.99,-4.22 32.38,-12.66 6.19,-8.44 9.28,-21.31 9.28,-38.57l0 -24.17c0,-17.27 -3.09,-30.12 -9.28,-38.57 -6.39,-8.44 -17.12,-12.67 -32.38,-12.67l-165.41 0c-3.92,0 -5.98,2.31 -5.98,6.91l0 119.73zm185.41 -205.49c34.24,0 58.79,9.99 73.84,29.95 14.85,19.94 22.28,49.48 22.28,88.63l0 32.79c0,33.02 -5.16,59.09 -15.47,78.3 -10.52,19.18 -27.64,31.45 -51.15,36.81l76.52 122.04c1.44,1.92 1.86,4.81 1.44,8.62 -0.62,3.86 -3.09,5.76 -7.22,5.76l-57.75 0c-3.91,0 -6.6,-0.56 -8.04,-1.72 -1.44,-1.15 -2.89,-3.07 -4.54,-5.75l-70.74 -119.73 -144.58 0 0 114.53c0,8.46 -3.31,12.67 -9.7,12.67l-48.47 0c-6.81,0 -10.31,-4.21 -10.31,-12.67l0 -372.96c0,-11.51 4.54,-17.27 13.61,-17.27l240.28 0z"/>
   <path class="fil19" d="M5425.11 4935.39c7.01,0 10.31,4.23 10.31,12.67l0 54.68c0,8.43 -3.3,12.66 -10.31,12.66l-195.53 0c-11.55,0 -21.24,1.26 -28.87,3.75 -7.43,2.48 -13.61,6.71 -18.36,12.65 -4.54,5.96 -7.84,14.02 -9.49,24.19 -1.85,10.17 -2.68,22.73 -2.68,37.68l0 5.78 252.87 0c6.39,0 9.69,4.2 9.69,12.64l0 45.48c0,8.43 -3.3,12.66 -9.69,12.66l-252.87 0 0 9.78c0,14.97 0.83,27.53 2.68,37.7 1.65,10.17 4.95,18.24 9.49,24.17 4.75,5.97 10.93,10.19 18.36,12.67 7.63,2.49 17.32,3.75 28.87,3.75l195.53 0c7.01,0 10.31,4.21 10.31,12.64l0 54.68c0,8.46 -3.3,12.67 -10.31,12.67l-196.76 0c-22.69,0 -42.08,-2.69 -57.75,-8.05 -15.89,-5.36 -28.88,-14.1 -38.78,-26.19 -9.9,-12.09 -17.33,-27.8 -21.86,-47.19 -4.75,-19.37 -7.02,-42.88 -7.02,-70.52l0 -99c0,-27.62 2.27,-51.03 7.02,-70.21 4.53,-19.18 11.96,-34.84 21.86,-46.92 9.9,-12.07 22.89,-20.9 38.78,-26.46 15.67,-5.57 35.06,-8.36 57.75,-8.36l196.76 0z"/>
   <path class="fil19" d="M5652.61 5189.81l153.86 0 -71.16 -168.66c-1.23,-2.68 -2.88,-4.02 -4.74,-4.02l-2.89 0c-2.06,0 -3.71,1.34 -4.74,4.02l-70.33 168.66zm86.83 -254.42c11.34,0 20.83,2.97 28.67,8.93 7.63,5.94 15.26,17.56 22.69,34.82l148.29 345.91c1.45,3.85 1.86,7.01 1.03,9.5 -0.82,2.5 -2.89,3.74 -6.39,3.74l-56.93 0c-5.15,0 -8.45,-2.5 -10.31,-7.47l-31.76 -74.25 -210.38 0 -30.94 74.25c-2.06,4.97 -5.36,7.47 -10.1,7.47l-58.37 0c-3.72,0 -6.19,-1.24 -6.81,-3.74 -0.83,-2.49 -0.41,-5.65 1.03,-9.5l146.85 -345.91c7.43,-17.26 14.65,-28.88 21.87,-34.82 7.21,-5.96 15.67,-8.93 25.16,-8.93l26.4 0z"/>
   <path class="fil19" d="M6070.47 4935.39c6.6,0 9.91,4.23 9.91,12.67l0 229.66c0,15.34 1.03,28.11 2.88,38.26 2.07,10.17 5.16,18.23 9.7,24.17 4.53,5.96 10.51,10.17 18.15,12.66 7.63,2.5 17.12,3.76 28.87,3.76l181.09 0c6.6,0 10.11,4.23 10.11,12.66l0 56.39c0,8.46 -3.51,12.67 -10.11,12.67l-183.77 0c-22.69,0 -41.87,-2.69 -57.75,-8.05 -15.88,-5.36 -28.67,-14.1 -38.78,-26.19 -9.9,-12.09 -17.32,-27.8 -21.86,-47.19 -4.74,-19.37 -7.01,-42.88 -7.01,-70.52l0 -238.28c0,-8.44 3.5,-12.67 10.31,-12.67l48.26 0z"/>
   <path class="fil19" d="M6680.57 4935.39c6.8,0 10.31,4.23 10.31,12.67l0 56.41c0,8.82 -3.51,13.22 -10.31,13.22l-140.46 0 0 307.93c0,8.46 -3.3,12.67 -9.9,12.67l-48.88 0c-6.39,0 -9.69,-4.21 -9.69,-12.67l0 -307.93 -140.46 0c-7.01,0 -10.32,-4.4 -10.32,-13.22l0 -56.41c0,-8.44 3.31,-12.67 10.32,-12.67l349.39 0z"/>
   <path class="fil19" d="M6840.41 5180.01c0,14.97 1.04,27.53 2.89,37.7 1.86,10.17 5.16,18.24 9.49,24.17 4.54,5.97 10.72,10.19 18.36,12.67 7.42,2.49 17.11,3.75 28.66,3.75l133.04 0c11.55,0 21.24,-1.26 28.87,-3.75 7.63,-2.48 13.62,-6.7 18.15,-12.67 4.34,-5.93 7.63,-14 9.49,-24.17 2.06,-10.17 2.89,-22.73 2.89,-37.7l0 -86.34c0,-14.95 -0.83,-27.51 -2.89,-37.68 -1.86,-10.17 -5.15,-18.23 -9.49,-24.19 -4.53,-5.94 -10.52,-10.17 -18.15,-12.65 -7.63,-2.49 -17.32,-3.75 -28.87,-3.75l-133.04 0c-11.55,0 -21.24,1.26 -28.66,3.75 -7.64,2.48 -13.82,6.71 -18.36,12.65 -4.33,5.96 -7.63,14.02 -9.49,24.19 -1.85,10.17 -2.89,22.73 -2.89,37.68l0 86.34zm195.12 -244.62c22.48,0 41.87,2.79 57.96,8.36 15.88,5.56 28.87,14.39 38.77,26.46 10.11,12.08 17.33,27.74 21.86,46.92 4.54,19.18 6.61,42.59 6.61,70.21l0 99c0,27.64 -2.07,51.15 -6.61,70.52 -4.53,19.39 -11.75,35.1 -21.86,47.19 -9.9,12.09 -22.89,20.83 -38.77,26.19 -16.09,5.36 -35.48,8.05 -57.96,8.05l-138.4 0c-22.69,0 -41.86,-2.69 -57.75,-8.05 -15.67,-5.36 -28.67,-14.1 -38.57,-26.19 -10.1,-12.09 -17.32,-27.8 -22.07,-47.19 -4.53,-19.37 -7.01,-42.88 -7.01,-70.52l0 -99c0,-27.62 2.48,-51.03 7.01,-70.21 4.75,-19.18 11.97,-34.84 22.07,-46.92 9.9,-12.07 22.9,-20.9 38.57,-26.46 15.89,-5.57 35.06,-8.36 57.75,-8.36l138.4 0z"/>
   <path class="fil19" d="M7338.51 5140.88l171.4 0c15.26,0 25.78,-4.22 32.18,-12.66 6.18,-8.44 9.48,-21.31 9.48,-38.57l0 -24.17c0,-17.27 -3.3,-30.12 -9.48,-38.57 -6.4,-8.44 -16.92,-12.67 -32.18,-12.67l-165.62 0c-3.92,0 -5.78,2.31 -5.78,6.91l0 119.73zm185.22 -205.49c34.24,0 58.99,9.99 73.84,29.95 15.05,19.94 22.48,49.48 22.48,88.63l0 32.79c0,33.02 -5.36,59.09 -15.68,78.3 -10.52,19.18 -27.43,31.45 -50.94,36.81l76.31 122.04c1.65,1.92 2.06,4.81 1.45,8.62 -0.62,3.86 -3.1,5.76 -7.22,5.76l-57.75 0c-3.92,0 -6.6,-0.56 -8.05,-1.72 -1.44,-1.15 -2.88,-3.07 -4.54,-5.75l-70.53 -119.73 -144.59 0 0 114.53c0,8.46 -3.3,12.67 -9.9,12.67l-48.26 0c-7.01,0 -10.31,-4.21 -10.31,-12.67l0 -372.96c0,-11.51 4.53,-17.27 13.4,-17.27l240.29 0z"/>
   <path class="fil19" d="M8034.82 4935.39c6.6,0 9.9,4.23 9.9,12.67l0 54.68c0,8.43 -3.3,12.66 -9.9,12.66l-224.19 0c-8.67,0 -14.85,2.88 -18.36,8.64 -3.51,5.75 -5.36,13.61 -5.36,23.59l0 19.58c0,21.49 7.84,32.24 23.3,32.24l167.69 0c26.19,0 45.58,8.51 58.78,25.59 13.2,17.08 19.59,41.56 19.59,73.39l0 46.05c0,28.01 -6.39,50.66 -19.18,67.92 -12.79,17.26 -32.79,25.89 -60.02,25.89l-247.91 0c-6.81,0 -10.32,-4.21 -10.32,-12.67l0 -54.68c0,-8.43 3.51,-12.64 10.32,-12.64l234.92 0c8.66,0 14.85,-2.89 18.35,-8.64 3.72,-5.76 5.37,-13.61 5.37,-23.6l0 -23.61c0,-21.47 -7.64,-32.22 -23.31,-32.22l-167.68 0c-25.99,0 -45.59,-8.54 -58.58,-25.62 -13.2,-17.05 -19.8,-41.51 -19.8,-73.38l0 -42.01c0,-28.01 6.39,-50.64 19.18,-67.92 13,-17.27 32.8,-25.91 60.02,-25.91l237.19 0z"/>
   <path class="fil20" d="M3999.23 5826.84c-4.82,-3.68 -11.42,-5.51 -19.98,-5.51l-26.03 0 0 43.67 26.75 0c8.38,0 14.98,-2.09 19.61,-6.23 4.64,-4.15 6.96,-9.29 6.96,-15.4l0 -0.42c0,-7.07 -2.32,-12.44 -7.31,-16.11z"/>
   <path class="fil21" d="M3684.66 5884.88c-2.14,3.35 -3.39,6.78 -3.39,10.33 0,5.17 2.15,9.28 6.07,12.34 4.1,3.06 9.09,4.59 15.51,4.59 3.75,0 7.49,-0.71 11.24,-2.13 3.56,-1.45 7.13,-3.44 10.7,-6.03l-29.25 -27.75c-5.17,2.43 -8.74,5.33 -10.88,8.65z"/>
   <path class="fil22" d="M3706.24 5847.65c6.78,-2.3 11.77,-4.94 15.16,-7.85 3.39,-2.93 5.17,-6.71 5.17,-11.34 0,-4.35 -1.43,-7.69 -4.1,-10.01 -2.68,-2.3 -6.07,-3.46 -10.35,-3.46 -4.45,0 -8.02,1.36 -10.69,4.07 -2.86,2.75 -4.11,6.26 -4.11,10.63 0,3.26 0.54,6.22 1.97,8.86 1.42,2.68 3.74,5.69 6.95,9.1z"/>
   <path class="fil23" d="M2929.82 5832.76c-4.1,-4.09 -9.09,-7.33 -14.62,-9.7 -5.71,-2.38 -11.95,-3.59 -18.73,-3.59 -6.77,0 -12.84,1.16 -18.54,3.48 -5.71,2.32 -10.34,5.51 -14.45,9.59 -4.1,4.09 -7.13,8.81 -9.27,14.2 -2.32,5.36 -3.56,11.1 -3.56,17.24l0 0.39c0,6.14 1.24,11.91 3.56,17.35 2.14,5.44 5.35,10.22 9.45,14.31 4.28,4.06 9.1,7.31 14.8,9.68 5.53,2.39 11.77,3.57 18.55,3.57 6.77,0 12.84,-1.15 18.55,-3.46 5.7,-2.32 10.52,-5.51 14.62,-9.6 3.92,-4.08 7.13,-8.81 9.27,-14.19 2.32,-5.37 3.39,-11.13 3.39,-17.23l0 -0.43c0,-6.1 -1.07,-11.89 -3.39,-17.33 -2.14,-5.46 -5.35,-10.2 -9.63,-14.28z"/>
   <path class="fil24" d="M4374.77 5832.76c-4.28,-4.09 -9.09,-7.33 -14.8,-9.7 -5.7,-2.38 -11.94,-3.59 -18.54,-3.59 -6.96,0 -13.02,1.16 -18.72,3.48 -5.53,2.32 -10.35,5.51 -14.45,9.59 -3.92,4.09 -7.13,8.81 -9.27,14.2 -2.32,5.36 -3.57,11.1 -3.57,17.24l0 0.39c0,6.14 1.25,11.91 3.57,17.35 2.14,5.44 5.35,10.22 9.45,14.31 4.28,4.06 9.09,7.31 14.8,9.68 5.53,2.39 11.77,3.57 18.55,3.57 6.77,0 12.83,-1.15 18.54,-3.46 5.71,-2.32 10.52,-5.51 14.62,-9.6 3.93,-4.08 7.14,-8.81 9.28,-14.19 2.31,-5.37 3.56,-11.13 3.56,-17.23l0 -0.43c0,-6.1 -1.25,-11.89 -3.56,-17.33 -2.14,-5.46 -5.35,-10.2 -9.46,-14.28z"/>
   <path class="fil25" d="M4173.81 5826.42c-4.64,-3.4 -11.06,-5.09 -19.44,-5.09l-33.35 0 0 41.01 34.06 0c8.38,0 14.8,-1.84 19.08,-5.51 4.46,-3.67 6.78,-8.58 6.78,-14.7l0 -0.4c0,-6.8 -2.32,-11.9 -7.13,-15.31z"/>
   <path class="fil26" d="M5244.64 5893.56c0,7.08 -1.25,13.38 -4.1,18.89 -2.68,5.51 -6.43,10.13 -11.42,13.87 -4.99,3.75 -10.7,6.6 -17.65,8.58 -6.78,1.96 -14.45,2.96 -22.65,2.96 -11.59,0 -23,-1.89 -34.24,-5.62 -11.23,-3.74 -21.4,-9.49 -30.67,-17.24l19.97 -22.26c6.96,5.32 14.09,9.53 21.4,12.66 7.31,3.14 15.52,4.7 24.25,4.7 6.96,0 12.49,-1.2 16.23,-3.57 3.93,-2.37 5.71,-5.69 5.71,-9.9l0 -0.41c0,-2.03 -0.36,-3.85 -1.07,-5.4 -0.89,-1.57 -2.32,-3.03 -4.64,-4.39 -2.32,-1.37 -5.35,-2.73 -9.45,-4.08 -4.1,-1.38 -9.27,-2.78 -15.69,-4.3 -7.67,-1.77 -14.62,-3.73 -20.87,-5.9 -6.42,-2.2 -11.76,-4.87 -16.05,-8.08 -4.45,-3.19 -7.84,-7.17 -10.16,-11.95 -2.49,-4.74 -3.74,-10.66 -3.74,-17.74l0 -0.41c0,-6.53 1.42,-12.41 3.92,-17.65 2.68,-5.25 6.24,-9.76 11.06,-13.58 4.63,-3.81 10.16,-6.72 16.76,-8.77 6.6,-2.03 13.73,-3.05 21.57,-3.05 11.24,0 21.58,1.55 30.85,4.67 9.46,3.14 18.02,7.62 26.04,13.48l-17.48 23.69c-6.95,-4.35 -13.55,-7.8 -20.15,-10.31 -6.59,-2.52 -13.01,-3.78 -19.61,-3.78 -6.6,0 -11.41,1.19 -14.8,3.57 -3.21,2.38 -5,5.35 -5,8.88l0 0.4c0,2.32 0.54,4.32 1.61,6.01 0.89,1.72 2.67,3.25 4.99,4.6 2.5,1.36 5.89,2.66 10.35,3.88 4.27,1.23 9.62,2.65 16.22,4.29 7.67,1.91 14.63,4.05 20.69,6.44 6.06,2.37 11.05,5.23 15.33,8.56 4.11,3.33 7.31,7.26 9.46,11.73 2.13,4.5 3.03,9.86 3.03,16.12l0 0.41zm-158 -71.63l-46.54 0 0 113.88 -33.7 0 0 -113.88 -46.55 0 0 -28.98 126.79 0 0 28.98zm-176.72 101.43c-4.28,3.12 -8.91,5.82 -13.9,8.06 -5,2.25 -10.53,3.96 -16.41,5.1 -6.06,1.16 -12.66,1.73 -20.15,1.73 -11.24,0 -21.58,-1.9 -31.21,-5.69 -9.63,-3.81 -18.01,-9.02 -24.96,-15.62 -6.96,-6.61 -12.49,-14.39 -16.41,-23.38 -3.92,-8.96 -5.88,-18.58 -5.88,-28.76l0 -0.43c0,-10.2 1.96,-19.76 5.88,-28.65 3.92,-8.92 9.45,-16.75 16.41,-23.49 6.95,-6.72 15.33,-12.04 25.14,-15.91 9.81,-3.88 20.51,-5.83 32.46,-5.83 6.95,0 13.55,0.56 19.43,1.64 5.89,1.09 11.24,2.59 16.05,4.5 4.82,1.91 9.27,4.21 13.37,6.93 3.93,2.71 7.85,5.73 11.42,8.97l-21.58 23.08c-5.88,-5.05 -11.95,-8.99 -18.19,-11.84 -6.24,-2.86 -13.02,-4.3 -20.86,-4.3 -6.42,0 -12.31,1.16 -17.83,3.48 -5.35,2.32 -9.99,5.51 -14.09,9.59 -3.93,4.09 -6.96,8.81 -9.1,14.2 -2.14,5.36 -3.38,11.1 -3.38,17.24l0 0.39c0,6.14 1.24,11.91 3.38,17.35 2.14,5.44 5.17,10.22 9.1,14.31 3.74,4.06 8.38,7.31 13.91,9.68 5.53,2.39 11.41,3.57 18.01,3.57 8.74,0 16.05,-1.5 22.29,-4.48 5.88,-3 11.95,-7.08 18.01,-12.25l21.4 20.2c-3.93,3.94 -8.03,7.49 -12.31,10.61zm-174.04 12.45l-116.27 0 0 -142.86 115.2 0 0 27.96 -82.03 0 0 28.98 72.22 0 0 27.96 -72.22 0 0 30.01 83.1 0 0 27.95zm-172.44 -49.38c0,8.7 -1.25,16.25 -3.92,22.65 -2.5,6.4 -6.24,11.73 -11.06,16.03 -4.63,4.28 -10.34,7.47 -17.12,9.58 -6.6,2.12 -13.91,3.17 -21.93,3.17 -11.95,0 -21.93,-2.12 -30.14,-6.33 -8.02,-4.21 -14.62,-9.25 -19.97,-15.1l21.22 -22.04c4.46,4.47 8.74,7.98 13.2,10.5 4.46,2.51 9.45,3.78 14.8,3.78 6.24,0 11.41,-1.87 14.98,-5.62 3.74,-3.74 5.52,-9.75 5.52,-18.05l0 -92.05 34.42 0 0 93.48zm-140.52 -22.06c0,10.22 -2.14,19.78 -6.24,28.68 -4.1,8.93 -9.63,16.74 -16.94,23.48 -7.13,6.73 -15.69,12.04 -25.68,15.91 -9.98,3.89 -20.86,5.81 -32.63,5.81 -11.77,0 -22.65,-1.92 -32.63,-5.81 -9.81,-3.87 -18.37,-9.11 -25.68,-15.71 -7.14,-6.6 -12.84,-14.36 -16.77,-23.27 -4.1,-8.92 -6.06,-18.48 -6.06,-28.66l0 -0.43c0,-10.2 2.14,-19.76 6.24,-28.65 4.1,-8.92 9.63,-16.75 16.94,-23.49 7.14,-6.72 15.7,-12.04 25.68,-15.91 9.99,-3.88 20.87,-5.83 32.64,-5.83 11.76,0 22.64,1.95 32.63,5.83 9.81,3.87 18.37,9.12 25.68,15.71 7.13,6.6 12.84,14.36 16.76,23.28 4.1,8.89 6.06,18.47 6.06,28.67l0 0.39zm-242.7 71.44l-32.81 -45.72 -26.39 0 0 45.72 -33.7 0 0 -142.86 69.9 0c18.19,0 32.46,4.16 42.44,12.45 10.17,8.31 15.16,19.87 15.16,34.7l0 0.41c0,11.56 -2.85,20.97 -8.92,28.25 -6.06,7.29 -14.08,12.62 -23.71,16.03l37.44 51.02 -39.41 0zm-139.62 -93.07c0,8.29 -1.61,15.59 -4.82,21.83 -3.21,6.28 -7.49,11.5 -13.19,15.73 -5.53,4.22 -12.13,7.38 -19.62,9.48 -7.49,2.13 -15.51,3.18 -24.25,3.18l-25.5 0 0 42.85 -33.53 0 0 -142.86 62.42 0c9.27,0 17.29,1.18 24.61,3.57 7.13,2.39 13.19,5.76 18.18,10.09 5.18,4.37 8.92,9.58 11.59,15.63 2.86,6.06 4.11,12.76 4.11,20.09l0 0.41zm-279.26 95.92l-17.65 -16.73c-6.24,4.77 -13.2,8.62 -20.51,11.54 -7.31,2.93 -15.51,4.39 -24.25,4.39 -7.49,0 -14.09,-0.96 -20.33,-2.85 -6.42,-1.91 -11.77,-4.67 -16.41,-8.28 -4.45,-3.6 -8.2,-7.97 -10.7,-13.05 -2.67,-5.12 -3.92,-10.86 -3.92,-17.25 0,-9.27 2.5,-17.11 7.67,-23.59 4.99,-6.45 12.3,-11.73 21.93,-15.82 -3.74,-5.02 -6.42,-9.82 -8.2,-14.37 -1.6,-4.56 -2.5,-9.34 -2.5,-14.39 0,-4.9 1.07,-9.63 3.04,-14.19 2.14,-4.55 5.17,-8.56 9.09,-12.04 3.92,-3.46 8.74,-6.24 14.45,-8.36 5.7,-2.12 12.3,-3.18 19.79,-3.18 6.6,0 12.48,0.93 17.65,2.77 5.17,1.83 9.63,4.38 13.56,7.65 3.74,3.26 6.59,7.11 8.73,11.53 1.96,4.43 3.03,9.15 3.03,14.18 0,9.67 -3.03,17.5 -8.91,23.47 -6.06,5.99 -13.73,10.68 -23.18,14.1l20.33 18.98c2.49,-3.68 4.99,-7.58 7.48,-11.75 2.5,-4.14 4.82,-8.4 7.32,-12.75l24.78 12.66c-3.03,5.03 -6.06,10.13 -9.45,15.3 -3.39,5.17 -6.95,10.13 -10.7,14.89l22.47 21.02 -24.61 16.12zm-241.45 -45.1c0,7.08 -1.42,13.38 -4.1,18.89 -2.67,5.51 -6.6,10.13 -11.59,13.87 -4.81,3.75 -10.7,6.6 -17.48,8.58 -6.77,1.96 -14.44,2.96 -22.64,2.96 -11.77,0 -23.18,-1.89 -34.24,-5.62 -11.41,-3.74 -21.58,-9.49 -30.67,-17.24l19.79 -22.26c7.13,5.32 14.27,9.53 21.58,12.66 7.31,3.14 15.33,4.7 24.07,4.7 7.13,0 12.48,-1.2 16.41,-3.57 3.74,-2.37 5.7,-5.69 5.7,-9.9l0 -0.41c0,-2.03 -0.35,-3.85 -1.24,-5.4 -0.72,-1.57 -2.32,-3.03 -4.46,-4.39 -2.32,-1.37 -5.53,-2.73 -9.45,-4.08 -4.11,-1.38 -9.28,-2.78 -15.7,-4.3 -7.84,-1.77 -14.8,-3.73 -21.04,-5.9 -6.24,-2.2 -11.59,-4.87 -16.05,-8.08 -4.28,-3.19 -7.66,-7.17 -10.16,-11.95 -2.32,-4.74 -3.57,-10.66 -3.57,-17.74l0 -0.41c0,-6.53 1.25,-12.41 3.93,-17.65 2.67,-5.25 6.24,-9.76 10.87,-13.58 4.82,-3.81 10.35,-6.72 16.94,-8.77 6.42,-2.03 13.74,-3.05 21.58,-3.05 11.24,0 21.58,1.55 30.85,4.67 9.45,3.14 18.01,7.62 25.86,13.48l-17.3 23.69c-6.95,-4.35 -13.73,-7.8 -20.15,-10.31 -6.6,-2.52 -13.19,-3.78 -19.62,-3.78 -6.59,0 -11.59,1.19 -14.8,3.57 -3.21,2.38 -4.99,5.35 -4.99,8.88l0 0.4c0,2.32 0.54,4.32 1.43,6.01 0.89,1.72 2.67,3.25 5.17,4.6 2.49,1.36 5.88,2.66 10.16,3.88 4.28,1.23 9.81,2.65 16.41,4.29 7.67,1.91 14.62,4.05 20.68,6.44 6.07,2.37 11.06,5.23 15.34,8.56 4.1,3.33 7.13,7.26 9.45,11.73 1.96,4.5 3.03,9.86 3.03,16.12l0 0.41zm-162.45 42.25l-116.09 0 0 -142.86 115.02 0 0 27.96 -81.85 0 0 28.98 72.04 0 0 27.96 -72.04 0 0 30.01 82.92 0 0 27.95zm-174.76 0l-33.16 0 0 -93.26 -42.98 61.02 -0.89 0 -42.62 -60.42 0 92.66 -33.17 0 0 -142.86 36.2 0 40.3 60.42 40.12 -60.42 36.2 0 0 142.86zm-204.53 -71.44c0,10.22 -2.14,19.78 -6.25,28.68 -4.1,8.93 -9.62,16.74 -16.93,23.48 -7.14,6.73 -15.7,12.04 -25.68,15.91 -9.99,3.89 -20.87,5.81 -32.82,5.81 -11.59,0 -22.46,-1.92 -32.45,-5.81 -9.81,-3.87 -18.37,-9.11 -25.68,-15.71 -7.13,-6.6 -12.66,-14.36 -16.76,-23.27 -4.1,-8.92 -6.06,-18.48 -6.06,-28.66l0 -0.43c0,-10.2 2.13,-19.76 6.24,-28.65 4.1,-8.92 9.63,-16.75 16.94,-23.49 7.13,-6.72 15.69,-12.04 25.68,-15.91 9.98,-3.88 20.86,-5.83 32.63,-5.83 11.77,0 22.65,1.95 32.63,5.83 9.81,3.87 18.37,9.12 25.68,15.71 7.13,6.6 12.84,14.36 16.76,23.28 3.93,8.89 6.07,18.47 6.07,28.67l0 0.39zm-214.35 71.44l-33.7 0 0 -57.35 -61.88 0 0 57.35 -33.7 0 0 -142.86 33.7 0 0 56.53 61.88 0 0 -56.53 33.7 0 0 142.86zm2454.44 -206.7l-2557.15 0c-74.9,0 -135.53,60.67 -135.53,135.46l0 0.02c0,74.8 60.63,135.45 135.53,135.45l2557.15 0c74.72,0 135.35,-60.65 135.35,-135.45l0 -0.02c0,-74.79 -60.63,-135.46 -135.35,-135.46z"/>
   <path class="fil27" d="M3652.53 3636.22c-1.5,-1.46 -2.69,-2.61 -3.51,-3.57 -3.18,-3.01 -7.36,-7.08 -10.68,-13.3 -69.87,-129.43 -182.7,-230.14 -344.85,-307.91l-12.01 -5.82c-78.91,-37.76 -160.28,-76.84 -238.01,-120.71 -130.21,-73.54 -224.99,-189.71 -289.85,-355.06 -43.12,-110.12 -67.36,-228.25 -72.04,-351.17 -2.15,-58.21 -1.5,-117.02 -0.68,-173.94 0.36,-23.38 0.68,-46.76 0.86,-70.15 0,-7.36 1,-13.94 1.82,-20.3 0.36,-2.54 0.86,-5.22 1.18,-8.16l3.68 -29.67 31.61 -0.32c49.45,0 87.24,23.2 112.48,69.04 23.74,42.83 30.75,87.88 37.43,131.46 1.33,9.05 2.69,18.13 4.33,27.14l6.36 37.68c10.37,60.86 21.06,123.81 35.29,184.24 13.02,55.02 43.44,104.15 90.56,146.05 47.98,42.62 99.83,86.85 161.5,118.02 27.71,14.02 52.63,31.75 76.69,48.95 14.37,10.26 28.1,20.02 42.12,28.89 5.36,3.39 10.87,6.68 16.23,9.94l-13.73 -11.91c-35.43,-30.43 -72.04,-61.96 -106.29,-95.21 -20.56,-19.74 -31.75,-47.19 -38.62,-66.15 -7.18,-20.37 -2,-59.1 22.56,-73.32 8.69,-5.01 19.56,-7.69 31.43,-7.69 14.55,0 28.92,3.86 39.62,10.58 80.08,50.24 175.01,110.27 271.43,174.3 89.6,59.46 157.46,127.92 207.62,209.37 65.86,107.29 81.56,220.45 46.27,336.29 -11.52,37.94 -23.56,75.73 -35.94,114.55 -5.82,17.99 -35.07,110.3 -35.07,110.3l-39.79 -42.44z"/>
   <path class="fil28" d="M2718.69 2191.91c41.44,-0.47 66.68,19.91 84.1,51.44 25.23,45.91 29.06,97.47 37.75,147.88 12.87,74.9 24.74,150.13 42.12,223.99 15.41,64.61 51.16,119.24 101.14,163.68 52.31,46.45 105.47,90.92 168.79,123.03 41.12,20.74 76.91,51.52 116.02,76.22 25.71,16.16 52.49,30.68 79.87,43.52 18.06,8.43 25.6,4.72 39.29,-11.48 -9.36,-29.1 -30.92,-49.73 -54.16,-69.68 -42.8,-37.12 -86.24,-73.66 -127.03,-112.99 -14.01,-13.65 -23.21,-34.03 -29.93,-52.98 -3.32,-9.33 0.68,-28.39 7.37,-32.36 8.86,-5.11 26.6,-3.64 35.79,2.22 90.92,56.99 181.34,114.52 270.75,173.83 79.24,52.59 147.09,117.13 197.4,198.86 59.35,96.61 76.04,199.18 42.79,308.44 -16.87,55.42 -34.78,110.45 -53.3,168.97 -4.86,-5.18 -7.55,-7.08 -9.05,-9.69 -81.41,-150.66 -208.58,-249.8 -360.18,-322.49 -83.41,-40.08 -167.32,-79.94 -248.05,-125.46 -134.89,-76.26 -219.13,-196.03 -274.8,-337.87 -42.79,-109.22 -65.18,-223.13 -69.68,-339.94 -3.01,-80.76 -0.32,-161.74 0.18,-242.65 0,-7.37 1.64,-14.73 2.82,-24.49z"/>
   <path class="fil29" d="M3937.02 3624.36c-4.51,-13.16 -9.02,-25.89 -13.37,-38.44 -10.2,-28.78 -19.92,-55.95 -27.43,-84.7l-4.32 -16.95c-11.73,-44.22 -23.93,-89.95 -27.1,-137.14 -6.51,-97.11 26.24,-188.03 103.29,-286.35 46.15,-58.71 104.64,-111.55 174.01,-157.06 53.81,-35.18 107.79,-69.76 161.78,-104.37 34.11,-21.84 68.22,-43.62 102.14,-65.53 14.38,-9.3 28.39,-14.02 41.8,-14.02 15.69,0 30.07,6.58 40.26,18.56 15.73,18.16 20.56,50.27 10.87,71.61 -8.87,19.77 -23.42,48.48 -46.12,70.29 -22.74,21.99 -46.81,42.55 -70.22,62.46 -14.52,12.48 -29.25,24.96 -43.62,37.79 0.18,-0.07 0.36,-0.11 0.36,-0.18 18.37,-11.47 36.93,-22.74 55.48,-34 46.45,-28.24 94.43,-57.49 138.73,-89.2 79.87,-57.13 143.73,-107.01 178.83,-184.88 27.57,-61.07 38.62,-126.57 49.49,-199.68l3.82 -27.25c6.36,-43.44 12.87,-88.42 22.24,-132.57 5.51,-25.78 17.23,-53.56 34.79,-82.52 20.88,-34.35 54.81,-53.27 95.42,-53.27 3.83,0 7.51,0.18 11.52,0.47l28.42 2.39 2.68 28.39 1.32 12.94c1.18,9.76 2.18,19.13 2.51,28.53 8.22,163.25 7.04,377.38 -75.19,586.35 -69.54,176.95 -189.39,307.66 -356.35,388.57l-36.47 17.59c-70.51,34.07 -143.37,69.36 -213.59,106.4 -116.48,61.53 -207.76,150.05 -271.44,263.11 -2.5,4.29 -5.19,8.36 -8.87,13.55l-5 7.33 -38.61 57.24 -22.06 -65.46z"/>
   <path class="fil28" d="M4926.84 2193.12c1.33,14.12 3.18,27 3.68,39.94 9.69,195.03 -0.36,387.45 -72.9,572.15 -65.68,167.26 -177.15,291.71 -339.44,370.34 -84.09,40.72 -168.5,80.91 -251.06,124.49 -121.66,64.25 -217.63,156.17 -285.31,276.59 -3,5.25 -6.68,10.04 -12.54,18.52 -14.2,-42.52 -29.61,-81.05 -39.94,-120.89 -12.69,-48.69 -27.07,-98.03 -30.43,-147.8 -6.86,-100.39 35.61,-185.81 96.11,-262.93 46.62,-59.35 102.97,-108.4 165.82,-149.59 87.42,-57.28 175.84,-113.09 263.75,-169.79 12.69,-8.33 27.89,-13.27 37.61,-1.89 6.83,7.97 10.01,25.92 5.69,35.28 -9.73,21.49 -21.92,43.62 -38.65,59.78 -38.26,36.97 -80.55,69.79 -119.81,105.69 -16.73,15.16 -30.93,33.25 -44.66,51.34 -3.82,5.33 -5,17.34 -1.5,22.42 3.36,5.22 13.87,7.65 21.42,7.72 7.87,0.03 16.38,-2.97 23.71,-6.61 16.72,-8.3 33.28,-17.06 48.98,-26.92 65.71,-40.98 133.21,-79.45 196.07,-124.43 75.36,-53.88 150.08,-109.98 190.06,-198.61 30.07,-66.46 41.62,-137.39 52.13,-208.72 7.69,-52.7 14.55,-105.65 25.74,-157.6 5.36,-25.14 17.23,-49.84 30.6,-71.98 15.88,-26.09 41.26,-39.29 74.87,-36.5z"/>
  </g>
 </g>
</svg>
